<svg xmlns="http://www.w3.org/2000/svg" width="32.392" height="32.393" viewBox="0 0 32.392 32.393">
  <g id="Group_12" data-name="Group 12" transform="translate(34 45)">
    <g id="Group_1551" data-name="Group 1551" transform="translate(-34 -45)">
      <path id="Path_1814" data-name="Path 1814" d="M3148.805,1534.322c0-.538.009-1.076,0-1.613a1.241,1.241,0,0,1,.495-1.027,5.517,5.517,0,0,1,2.1-.961,19.748,19.748,0,0,1,4.074-.631,27.405,27.405,0,0,1,6.12.266,11,11,0,0,1,2.865.78,5.471,5.471,0,0,1,.974.6,1.116,1.116,0,0,1,.444.952c-.007,1.038,0,2.075,0,3.113a1.993,1.993,0,0,0,1.442,1.971c.625.243,1.26.468,1.888.705a.234.234,0,0,0,.281-.054,1.7,1.7,0,0,1,2.009-.2,1.348,1.348,0,0,1,.572,1.747.258.258,0,0,0,.02.236,5.137,5.137,0,0,1,1.287,4.9c-.494,2.163-.867,4.351-1.432,6.5-1.371,5.216-4.854,8.784-10.623,10.3-6.8,1.789-14.012-1.146-17.227-6.844a15.4,15.4,0,0,1-1.609-4.544c-.395-1.919-.83-3.83-1.228-5.749a4.924,4.924,0,0,1,1.289-4.485.28.28,0,0,0,.068-.358,1.319,1.319,0,0,1,.583-1.7,1.691,1.691,0,0,1,1.972.174.3.3,0,0,0,.364.065c.626-.241,1.266-.457,1.888-.706a1.967,1.967,0,0,0,1.392-1.908C3148.808,1535.336,3148.805,1534.829,3148.805,1534.322Zm-5.744,6.251a4.364,4.364,0,0,0-1.222,4.006c.41,2,.873,3.993,1.281,5.994a13.933,13.933,0,0,0,1.874,4.813,14.83,14.83,0,0,0,15.1,6.223c5.628-1.008,10.124-5.058,11.259-10.156.48-2.158.923-4.323,1.414-6.478a4.517,4.517,0,0,0-.485-3.522c-.2-.326-.455-.625-.654-.893a7.323,7.323,0,0,1-.809.23.251.251,0,0,0-.246.2,9.791,9.791,0,0,1-1.115,2.352c-.167.26-.344.515-.513.768.022.031.034.051.049.069a1.317,1.317,0,0,1,.032,1.749,1.71,1.71,0,0,1-1.907.438.353.353,0,0,0-.263.078c-.631.536-1.246,1.086-1.881,1.617-.375.314-.776.6-1.168.9.018.044.033.079.047.114a1.328,1.328,0,0,1-.509,1.669,1.7,1.7,0,0,1-1.921-.026.242.242,0,0,0-.307.006q-1.566.874-3.137,1.74c-.055.03-.107.063-.174.1.066.088.126.16.177.237.648.973,1.308,1.941,1.937,2.924a2.126,2.126,0,0,1,.266,1.78,2.672,2.672,0,0,1-2.249,1.979,2.911,2.911,0,0,1-2.9-.953,2.258,2.258,0,0,1-.287-2.793c.417-.725.893-1.423,1.356-2.126.235-.356.5-.7.759-1.053-.043-.028-.074-.051-.108-.07-1.076-.594-2.154-1.186-3.225-1.786a.24.24,0,0,0-.3.034,1.716,1.716,0,0,1-1.863.028,1.316,1.316,0,0,1-.567-1.612c.063-.155.034-.23-.1-.339q-1.449-1.183-2.877-2.386a.249.249,0,0,0-.3-.065,1.675,1.675,0,0,1-1.847-.41,1.325,1.325,0,0,1-.037-1.732.235.235,0,0,0,.014-.228,11.061,11.061,0,0,1-1.572-3.058.263.263,0,0,0-.161-.134C3143.654,1540.726,3143.382,1540.659,3143.061,1540.573Zm8.206,7.951c.036-.018.051-.025.065-.033a1.737,1.737,0,0,1,1.845-.033,1.328,1.328,0,0,1,.607,1.563c-.046.156.036.2.144.262q1.605.883,3.208,1.767a.356.356,0,0,0,.391.005c1.081-.6,2.167-1.2,3.25-1.793a1.214,1.214,0,0,0,.145-.107,1.343,1.343,0,0,1,.526-1.662,1.72,1.72,0,0,1,1.959.029,27.425,27.425,0,0,0,3.1-2.572c-.02-.041-.025-.056-.033-.068a1.3,1.3,0,0,1,.036-1.657,1.708,1.708,0,0,1,1.765-.494.291.291,0,0,0,.236-.075,10.045,10.045,0,0,0,1.46-2.781c.042-.127,0-.186-.122-.247a1.361,1.361,0,0,1-.806-1.136,3,3,0,0,1,.023-.461l-.254-.1c-.637-.239-1.283-.458-1.907-.721a2.4,2.4,0,0,1-1.624-2.039c-.066-.753-.028-1.513-.036-2.27,0-.087,0-.173,0-.244-.48.208-.927.434-1.4.6a11.064,11.064,0,0,1-1.5.4,26.84,26.84,0,0,1-9.316.133,10.38,10.38,0,0,1-3.085-.895c-.166-.083-.324-.178-.516-.285v2.142a2.564,2.564,0,0,1-1.854,2.541c-.6.229-1.2.449-1.8.663-.142.051-.185.109-.165.25a1.3,1.3,0,0,1-.757,1.4c-.172.094-.183.166-.132.32a10.383,10.383,0,0,0,1.425,2.722.2.2,0,0,0,.266.085,1.634,1.634,0,0,1,1.724.464,1.294,1.294,0,0,1,.113,1.617.224.224,0,0,0,.016.223A26.915,26.915,0,0,0,3151.267,1548.523Zm6.717-13.937c.65-.057,1.945-.139,3.229-.291a9.9,9.9,0,0,0,3.063-.809,3.28,3.28,0,0,0,.751-.489.5.5,0,0,0,0-.84,3.274,3.274,0,0,0-.751-.489,10.832,10.832,0,0,0-3.087-.818,27.114,27.114,0,0,0-7.7,0,10.818,10.818,0,0,0-3.087.818,3.286,3.286,0,0,0-.752.489.508.508,0,0,0,0,.842,2.058,2.058,0,0,0,.555.388,9.968,9.968,0,0,0,1.322.5A24.387,24.387,0,0,0,3157.984,1534.587Zm-.637,18.349a25.709,25.709,0,0,0-2.123,3.2,1.617,1.617,0,0,0-.13,1.241,2.108,2.108,0,0,0,1.763,1.566,2.3,2.3,0,0,0,2.288-.746,1.789,1.789,0,0,0,.223-2.213c-.258-.458-.538-.908-.831-1.348C3158.161,1554.078,3157.763,1553.529,3157.347,1552.936Zm5.037-4.174a.92.92,0,0,0-.945.882.963.963,0,1,0,.945-.882Zm-9.149.858a.963.963,0,1,0-.943.862A.927.927,0,0,0,3153.236,1549.62Zm-7.284-4.537a.921.921,0,0,0,.953.854.865.865,0,1,0-.014-1.72A.915.915,0,0,0,3145.951,1545.083Zm22.772-.016a.96.96,0,0,0-1.908.007.929.929,0,0,0,.947.863A.919.919,0,0,0,3168.723,1545.067Zm-25.613-5.684a.955.955,0,0,0,1.9.034.953.953,0,0,0-1.9-.034Zm28.455.01a.954.954,0,1,0-.941.862A.919.919,0,0,0,3171.565,1539.393Z" transform="translate(-3141.136 -1530.028)" fill="#743386"/>
    </g>
  </g>
</svg>
