<svg id="Group_10" data-name="Group 10" xmlns="http://www.w3.org/2000/svg" width="61.065" height="35.057" viewBox="0 0 61.065 35.057">
  <g id="Group_1547" data-name="Group 1547" transform="translate(0 0)">
    <path id="Path_1796" data-name="Path 1796" d="M2764.065,1939.542c-.313,1.864-1.112,2.758-3.1,2.618a54.2,54.2,0,0,0-7.446,0c-1.94.13-2.851-.644-3.126-2.616Z" transform="translate(-2744.879 -1935.564)" fill="#743386"/>
    <g id="Group_1546" data-name="Group 1546">
      <path id="Path_1797" data-name="Path 1797" d="M2744.121,1952.012c0-3.413-.093-6.831.052-10.24a9.729,9.729,0,0,1,1.1-3.379c1.283-2.84,3.543-3.582,6.572-3.361,3.627.265,7.288.063,10.935.062,2.918,0,6.269,3.107,6.292,6.046q.089,11.055-.006,22.111c-.023,2.777-3.4,5.954-6.115,5.954q-6.285,0-12.569,0a6.849,6.849,0,0,1-6.26-6.253c-.03-1.861,0-3.724,0-5.586Zm23.287.171c0-3.259.029-6.52-.009-9.779a4.694,4.694,0,0,0-4.724-4.772q-6.055,0-12.107,0a4.542,4.542,0,0,0-4.74,4.5q-.093,10.01-.009,20.021a4.633,4.633,0,0,0,4.59,4.438q5.588.006,11.177,0c4.2,0,5.815-1.606,5.819-5.792Q2767.41,1956.491,2767.408,1952.183Z" transform="translate(-2744.092 -1934.996)" fill="#743386"/>
      <path id="Path_1798" data-name="Path 1798" d="M2808.441,1970.2h-3.284v-34.011h3.284Z" transform="translate(-2751.723 -1935.146)" fill="#743386"/>
      <path id="Path_1799" data-name="Path 1799" d="M2801.533,1953.693v3.348h-15.1v-3.348Z" transform="translate(-2749.384 -1937.332)" fill="#743386"/>
      <path id="Path_1800" data-name="Path 1800" d="M2782.891,1958.945h3.889c-.439,4.657-.866,9.188-1.293,13.719l-1.138.031C2783.118,1968.287,2783.056,1963.721,2782.891,1958.945Z" transform="translate(-2748.941 -1937.989)" fill="#743386"/>
      <path id="Path_1801" data-name="Path 1801" d="M2786.681,1950.213h-4.008c.46-4.628.907-9.127,1.355-13.627l1.062.018C2786.414,1940.936,2786.218,1945.473,2786.681,1950.213Z" transform="translate(-2748.914 -1935.195)" fill="#743386"/>
      <path id="Path_1802" data-name="Path 1802" d="M2812.274,1965.326V1943.12l.547-.156a11.017,11.017,0,0,1,.8,2.8q.112,8.58,0,17.162a10.045,10.045,0,0,1-.777,2.631Z" transform="translate(-2752.613 -1935.992)" fill="#743386"/>
      <path id="Path_1803" data-name="Path 1803" d="M2810.718,1939.879v27.459l-.271.006v-27.486Z" transform="translate(-2752.385 -1935.604)" fill="#743386"/>
      <path id="Path_1804" data-name="Path 1804" d="M2783.016,1953.7v3.326c-1.036.277-2.133-.115-2.044-1.56.05-.8,1.032-1.549,1.594-2.321Z" transform="translate(-2748.7 -1937.264)" fill="#743386"/>
      <path id="Path_1805" data-name="Path 1805" d="M2750.4,1953.108c0-2.246.023-4.493-.009-6.739-.028-1.972.73-3.038,2.871-2.977,2.786.081,5.576.071,8.363.006,1.9-.045,2.709.941,2.725,2.663q.062,7.087,0,14.173c-.014,1.594-.717,2.607-2.534,2.577-2.942-.05-5.887-.057-8.829.006a2.221,2.221,0,0,1-2.58-2.507C2750.378,1957.91,2750.4,1955.508,2750.4,1953.108Z" transform="translate(-2744.879 -1936.045)" fill="#743386"/>
      <path id="Path_1806" data-name="Path 1806" d="M2764.272,1969.365h-13.656c.226-2.006,1.14-2.855,3.195-2.709a50.514,50.514,0,0,0,7.213,0C2762.964,1966.512,2763.889,1967.317,2764.272,1969.365Z" transform="translate(-2744.907 -1938.951)" fill="#743386"/>
      <path id="Path_1807" data-name="Path 1807" d="M2769.148,1944.252v17.958l-.58.237a7.27,7.27,0,0,1-.961-2.354q-.137-6.846,0-13.7a7.826,7.826,0,0,1,.874-2.368Z" transform="translate(-2747.022 -1936.125)" fill="#743386"/>
      <path id="Path_1808" data-name="Path 1808" d="M2747.451,1944.1c2.2,1.724,2.181,16.667,0,18.244Z" transform="translate(-2744.512 -1936.134)" fill="#743386"/>
    </g>
  </g>
</svg>
