<svg xmlns="http://www.w3.org/2000/svg" width="51.053" height="51.053" viewBox="0 0 51.053 51.053">
  <path id="Path_1" data-name="Path 1" d="M2763.792,1531.446c1.12-.146,2.2-.29,3.278-.428.193-.025.391-.029.586-.037.292-.011.458.116.492.345.031.206-.178.368-.477.4-.709.074-1.419.141-2.125.232-.464.059-.923.151-1.421.235.148.333.288.638.42.946.142.328.049.493-.354.613q-1.672.5-3.346.99c-.468.137-.633.068-.808-.32-.131-.29-.264-.579-.415-.91l-2.729,1.292c.288.284.545.534.8.788.273.273.256.444-.076.673-.918.634-1.816,1.288-2.77,1.884a3.376,3.376,0,0,0-.9.865,14.513,14.513,0,0,0-3.117,7.768c-.438,5.412,1.621,10.069,6.457,13.819a19.11,19.11,0,0,0,10.187,3.908,20.039,20.039,0,0,0,15.762-4.966,15,15,0,0,0,5.006-8.707,14.506,14.506,0,0,0-3.325-12.277,5.657,5.657,0,0,0-1.155-.827c-.706-.487-1.416-.97-2.122-1.458-.35-.242-.368-.406-.079-.693.248-.247.5-.491.789-.774l-2.729-1.3c-.155.343-.292.647-.431.952-.15.331-.344.414-.746.3q-1.706-.5-3.408-1.012c-.382-.115-.476-.282-.343-.594s.273-.618.437-.987c-.962-.131-1.89-.259-2.819-.381-.239-.031-.482-.042-.723-.059-.294-.021-.482-.139-.5-.386-.011-.227.214-.391.545-.354,1.129.129,2.254.278,3.38.422.125.016.247.048.407.079l.49-1.078c.176-.385.351-.455.814-.317q1.657.493,3.31.99c.443.134.526.283.365.65s-.313.707-.471,1.061l3.017,1.43.9-.877a.572.572,0,0,1,.852-.066q1.371.934,2.733,1.876c.355.245.369.4.079.692s-.6.6-.9.887l2.236,2.182,1.151-.541c.474-.223.654-.184.921.194q.867,1.225,1.732,2.451c.25.354.2.516-.224.718-.4.19-.795.377-1.185.562l1.192,2.681c.429-.062.871-.124,1.311-.191.507-.077.679.019.768.425q.3,1.366.6,2.729c.109.487.018.6-.575.694-.362.056-.728.1-1.086.168-.085.016-.208.118-.208.182-.013.887-.009,1.773-.009,2.688l1.32.19c.542.077.663.211.568.659q-.3,1.421-.615,2.841c-.066.308-.245.412-.63.362-.487-.063-.973-.129-1.441-.191l-1.189,2.676c.39.185.8.376,1.2.571.387.186.448.36.226.676q-.895,1.278-1.8,2.55c-.21.3-.409.34-.771.175-.421-.193-.838-.393-1.255-.589l-2.237,2.183c.271.265.562.553.856.839.352.341.337.483-.085.773l-2.68,1.84a.55.55,0,0,1-.845-.061c-.31-.292-.612-.589-.91-.879l-3.014,1.429c.158.356.322.716.48,1.078.15.343.06.509-.361.634q-1.671.5-3.345.99c-.451.133-.616.066-.786-.308-.161-.352-.32-.7-.485-1.069l-2.678.418a2.078,2.078,0,0,1-1.634,1.657c.055.1.1.195.152.287.8,1.505,1.608,3.005,2.384,4.518a3.456,3.456,0,0,1-1.879,4.688c-2.592,1.217-5.91-.059-6.454-2.484a3.288,3.288,0,0,1,.329-2.354c.789-1.467,1.561-2.94,2.339-4.411.04-.076.075-.154.118-.244a2.068,2.068,0,0,1-1.619-1.658l-2.685-.417c-.167.372-.329.742-.5,1.111-.144.313-.34.393-.726.281q-1.708-.5-3.41-1.012c-.4-.12-.49-.289-.347-.618.158-.363.324-.723.487-1.088l-3.013-1.428c-.282.272-.588.573-.9.87s-.5.313-.87.06q-1.367-.938-2.733-1.876c-.327-.225-.346-.4-.072-.673.3-.3.608-.593.914-.89l-2.239-2.185-1.182.554c-.45.211-.62.177-.872-.179q-.875-1.238-1.745-2.479c-.259-.368-.208-.513.247-.73l1.157-.552-1.191-2.675-1.426.194c-.4.054-.576-.054-.646-.38q-.3-1.392-.606-2.785c-.108-.491.007-.623.614-.7.419-.056.835-.121,1.25-.182v-2.845c-.452-.067-.913-.137-1.375-.2s-.579-.176-.508-.531c.2-1,.419-2.008.64-3.01.059-.265.282-.362.66-.311.465.063.928.136,1.395.2L2748,1542.3c-.387-.185-.793-.376-1.2-.571s-.455-.36-.218-.7q.873-1.239,1.75-2.476c.257-.364.44-.4.9-.189l1.166.55,2.237-2.183c-.288-.284-.591-.579-.89-.876s-.29-.455.055-.694q1.375-.952,2.76-1.895a.566.566,0,0,1,.827.065l.907.887,3.018-1.431c-.16-.358-.329-.727-.49-1.1-.136-.313-.042-.481.335-.6q1.7-.512,3.408-1.016c.407-.121.6-.045.749.288C2763.475,1530.732,2763.635,1531.095,2763.792,1531.446Zm5.04,33.942c-.559-.048-1.064-.081-1.566-.137s-1.029-.116-1.534-.207a20.026,20.026,0,0,1-11.238-5.8,15.349,15.349,0,0,1-4.369-14.008c.129-.714.348-1.418.526-2.128a.636.636,0,0,1-.842.054c-.306-.162-.629-.3-1-.476l-1.062,2.385a.809.809,0,0,0,.139.065c.328.051.656.1.985.147.525.071.65.214.557.635q-.3,1.377-.6,2.757c-.093.436-.242.529-.776.455-.359-.049-.716-.1-1.112-.161v2.58l1.215-.18c.347-.051.568.039.628.305q.348,1.529.662,3.063c.058.287-.083.418-.435.474-.405.065-.811.123-1.285.195l1.073,2.4a1,1,0,0,0,.118-.031l.931-.433c.437-.2.622-.165.872.187q.885,1.249,1.765,2.5c.231.329.182.482-.213.674-.34.166-.683.328-1.068.513l2.029,1.976c.29-.281.532-.519.779-.754a.558.558,0,0,1,.87-.072q1.371.933,2.733,1.876c.344.238.355.407.062.7-.246.244-.5.486-.783.767l2.737,1.294c.168-.381.3-.693.444-1a.481.481,0,0,1,.649-.267q1.773.518,3.54,1.05c.319.1.41.275.3.54-.133.319-.277.635-.438,1l2.47.383Zm19.719-22.262c.011.036.021.071.033.105a14.958,14.958,0,0,1,.634,7.322,15.885,15.885,0,0,1-4.63,8.859,20.073,20.073,0,0,1-10.729,5.558c-1.117.212-2.265.311-3.422.466l2.208,3.28,2.47-.386c-.15-.339-.276-.623-.4-.905-.171-.389-.1-.53.369-.671q1.654-.5,3.31-.988c.446-.133.626-.062.794.3l.427.933,2.727-1.293c-.291-.286-.542-.529-.79-.775-.28-.279-.271-.451.054-.677q1.389-.96,2.789-1.911a.525.525,0,0,1,.795.059c.262.248.517.5.817.792l2.026-1.982c-.4-.192-.742-.35-1.079-.513-.377-.184-.43-.342-.211-.653q.9-1.276,1.8-2.549c.216-.3.427-.349.8-.178.347.159.691.324,1.089.511l1.081-2.427c-.463-.071-.847-.129-1.23-.189-.439-.07-.558-.211-.48-.577q.306-1.435.619-2.868c.076-.349.281-.459.709-.394.38.057.761.107,1.175.165v-2.572c-.437.061-.819.124-1.2.168-.455.051-.6-.047-.683-.419q-.3-1.407-.608-2.813c-.088-.4.043-.554.54-.622.369-.051.738-.11,1.165-.174l-1.086-2.426c-.39.185-.723.332-1.043.5A.688.688,0,0,1,2788.551,1543.125Zm-18.938,22.652c-.722,1.084-1.451,2.108-2.094,3.168-.366.6.15,1.308.98,1.452.224-.417.431-.846.687-1.255a.62.62,0,0,1,.431-.251.834.834,0,0,1,.437.249.886.886,0,0,1,.16.279l.531.993c.965-.253,1.332-.957.882-1.648-.351-.541-.722-1.074-1.085-1.611Zm-24.031-20.208-.51,2.365,2.891.417.507-2.365Zm45.692,2.784,2.892-.42-.515-2.364-2.885.42Zm-45.692,6.592,2.89-.42-.513-2.361-2.889.417Zm48.073,0,.509-2.366-2.89-.411-.508,2.361Zm-43.592-12.538,1.468-2.08-2.54-1.2-1.467,2.078Zm40.183-3.279-2.541,1.2,1.47,2.078,2.538-1.2ZM2759.8,1531.7l1.008,2.255,2.752-.823-1-2.254Zm19.631,0-2.758-.82-1,2.257,2.756.819Zm-27.9,28.486-1.468-2.079-2.539,1.2,1.466,2.078Zm30.933,4.464,1.887,1.839,2.246-1.545-1.887-1.836Zm-5.787,4.984,2.756-.826-1-2.253-2.755.823Zm15.037-10.326-2.542-1.2-1.465,2.08,2.541,1.2Zm-37.186,3.8-1.889,1.839,2.248,1.543,1.884-1.839Zm6.278,3.447-1,2.258,2.754.82,1-2.256Zm-6.279-29.147,2.248-1.544-1.889-1.837-2.245,1.543Zm30.186,0,1.885-1.84-2.248-1.541-1.885,1.839Zm-15.093,37.025c-.457.865-.9,1.652-1.287,2.454a1.062,1.062,0,0,0,.494,1.343,1.629,1.629,0,0,0,1.585,0,1.062,1.062,0,0,0,.5-1.342C2770.514,1576.086,2770.075,1575.3,2769.618,1574.432Zm-1.306.536a3.954,3.954,0,0,0,.852-2.578,7.928,7.928,0,0,1-.01-1.2l-.065-.007-1.762,3.323Zm3.6-.46-1.763-3.324c-.066.538-.021,1.073-.076,1.6-.087.83.524,1.452.83,2.194Zm-3.953,1.161-.976-.451a3.137,3.137,0,0,0-.719,2.806c.155-.064.3-.139.459-.187.434-.134.7-.329.632-.764a1.128,1.128,0,0,1,.175-.568C2767.652,1576.233,2767.8,1575.968,2767.957,1575.669Zm3.328,0c.03.068.046.112.068.154a2.876,2.876,0,0,1,.552,1.641c-.006.048.06.123.118.149.307.144.622.276.959.424.345-1.061-.2-1.93-.717-2.825Zm-3.623,2.605-1.114.5a3.459,3.459,0,0,0,2.584,1.526v-1.135A2.408,2.408,0,0,1,2767.662,1578.273Zm2.422,2a3.166,3.166,0,0,0,2.566-1.522l-1.08-.474a2.334,2.334,0,0,1-1.344.859.219.219,0,0,0-.137.157C2770.076,1579.608,2770.083,1579.928,2770.083,1580.27Zm17.951-40.972-2.024-1.974c-.136.126-.218.215-.318.291-.214.161-.2.3-.031.5.355.415.664.858.989,1.29.1.133.189.27.291.416Zm-36.836,0,1.082.51c.384-.515.746-1.014,1.126-1.5s.381-.478-.083-.9a.712.712,0,0,0-.127-.061Z" transform="translate(-2744.092 -1530.028)" fill="#743386"/>
</svg>
