<svg id="Group_11" data-name="Group 11" xmlns="http://www.w3.org/2000/svg" width="58.416" height="58.416" viewBox="0 0 58.416 58.416">
  <g id="Group_1549" data-name="Group 1549" transform="translate(0 0)">
    <path id="Path_1809" data-name="Path 1809" d="M2365.609,1536.149c-.662-.666-1.264-1.266-1.86-1.874-.55-.56-.554-.825-.011-1.374.821-.831,1.634-1.671,2.489-2.464a1.509,1.509,0,0,1,.91-.382q2.6-.054,5.2,0a1.509,1.509,0,0,1,.915.372c.87.807,1.694,1.663,2.53,2.506.488.492.494.8.014,1.285-.613.619-1.237,1.228-1.927,1.911,6.936,1.675,11.937,5.617,14.812,12.064a19.822,19.822,0,0,1,.9,13.913,20.664,20.664,0,0,1-40.372-3.421A20.771,20.771,0,0,1,2365.609,1536.149Zm-12.275,20.244a16.406,16.406,0,1,0,16.42-16.436A16.445,16.445,0,0,0,2353.334,1556.393Zm18.088-17.913a17.988,17.988,0,0,1,16.055,19.349,17.787,17.787,0,0,1-35.289,1.37,16.848,16.848,0,0,1,2.32-12,17.782,17.782,0,0,1,13.566-8.573c-.664-.641-1.026-1.367-2.186-1.115a19.392,19.392,0,1,0,7.1-.074.754.754,0,0,0-.519.12C2372.1,1537.841,2371.768,1538.169,2371.422,1538.48Zm-1.7-.36,4.648-4.63c-.6-.593-1.224-1.233-1.875-1.844a.9.9,0,0,0-.562-.213c-1.46-.017-2.921-.012-4.381,0a.687.687,0,0,0-.432.107c-.7.662-1.381,1.344-2,1.953Z" transform="translate(-2349.092 -1530.028)" fill="#743386"/>
    <path id="Path_1810" data-name="Path 1810" d="M2387.6,1588.92c-7.06-.218-12.634-2.951-16.815-8.434-.106-.139-.211-.28-.306-.427a.668.668,0,0,1,.114-.987.678.678,0,0,1,1.022.17c.285.369.544.761.85,1.113,5.28,6.081,11.917,8.466,19.709,6.462s12.588-7.251,14.142-15.148a19.174,19.174,0,0,0-14.51-22.153c-.114-.027-.227-.057-.339-.092a.688.688,0,1,1,.353-1.329,23.208,23.208,0,0,1,2.519.724c7.8,3.06,12.438,8.745,13.55,17.027a20.536,20.536,0,0,1-17.576,22.818C2389.354,1588.8,2388.38,1588.848,2387.6,1588.92Z" transform="translate(-2349.652 -1530.504)" fill="#743386"/>
    <path id="Path_1811" data-name="Path 1811" d="M2405.291,1567.1c0,11.426-8.561,19.537-18.74,18.97a17.485,17.485,0,0,1-12.379-5.977c-.1-.115-.277-.236-.282-.359a1.507,1.507,0,0,1,.12-.886c.237-.312.628-.243.934.01a3.852,3.852,0,0,1,.312.347c4.682,4.934,10.373,6.722,16.887,4.79,6.481-1.922,10.407-6.476,11.545-13.145a16.269,16.269,0,0,0-10.94-18.082c-.11-.038-.223-.07-.33-.114a.644.644,0,0,1-.445-.833.628.628,0,0,1,.863-.469,19.06,19.06,0,0,1,2.332.91C2401.75,1555.6,2405.009,1561.043,2405.291,1567.1Z" transform="translate(-2349.746 -1530.59)" fill="#743386"/>
    <path id="Path_1812" data-name="Path 1812" d="M2366.664,1568.236a20.685,20.685,0,0,1,14.9-19.778,2.924,2.924,0,0,1,.454-.106c.409-.05.751.138.757.531a1.092,1.092,0,0,1-.439.762,4.161,4.161,0,0,1-.986.336c-7.59,2.767-11.984,8.154-13.109,16.141a30.427,30.427,0,0,0-.033,4.188,2.835,2.835,0,0,0,.026.29c.044.454-.047.83-.58.906-.469.068-.753-.2-.8-.769C2366.777,1569.9,2366.725,1569.07,2366.664,1568.236Z" transform="translate(-2349.556 -1530.512)" fill="#743386"/>
    <path id="Path_1813" data-name="Path 1813" d="M2369.556,1568.336a17.88,17.88,0,0,1,13.513-17.252c.416-.1.824-.187,1.081.271s-.018.892-.642,1.047a15.344,15.344,0,0,0-6.009,2.874,16.237,16.237,0,0,0-6.322,15.606c.07.546-.128.923-.571.964-.51.046-.743-.249-.8-.722-.018-.155-.056-.307-.068-.462C2369.674,1569.886,2369.616,1569.111,2369.556,1568.336Z" transform="translate(-2349.632 -1530.582)" fill="#743386"/>
  </g>
</svg>
