<svg id="Group_9" data-name="Group 9" xmlns="http://www.w3.org/2000/svg" width="56.322" height="56.322" viewBox="0 0 56.322 56.322">
  <g id="Group_1553" data-name="Group 1553" transform="translate(0 0)">
    <path id="Path_1816" data-name="Path 1816" d="M2377.418,1981.347q-10.466,0-20.932,0c-4.355-.008-7.041-2.7-7.121-7.076a1.6,1.6,0,0,0,0-.219c-1.043-6.983.951-13.061,5.392-18.411a5.561,5.561,0,0,0,1.17-3.849c-.067-6.449-.039-12.9-.025-19.349.011-4.819,2.606-7.4,7.42-7.406q14.064-.008,28.128,0c4.805,0,7.324,2.5,7.368,7.463.056,6.45.041,12.9-.009,19.349a5.257,5.257,0,0,0,1.091,3.674c4.54,5.326,6.014,11.443,5.371,18.415-.457,4.961-2.442,7.405-7.355,7.41Q2387.666,1981.356,2377.418,1981.347Zm-.037-1.933c6.758,0,13.517.031,20.275-.012,3.976-.025,5.7-1.791,5.748-5.74.029-2.491-.088-4.988.041-7.473.074-1.445-.479-1.66-1.74-1.656q-20.166.062-40.334,0c-1.141,0-1.758.169-1.617,1.513.084.818.276,2.027-.981,2.043-1.239.015-.982-1.172-1.073-2.011-.069-.626.389-1.6-.9-1.516-1.224.08-.79,1.029-.8,1.654-.046,2.344-.007,4.69-.03,7.035-.006.65.007,1.432-.925,1.443s-.937-.753-.939-1.418c-.014-2.418-.063-4.838.017-7.254.038-1.146-.3-1.5-1.454-1.507s-1.277.519-1.26,1.46c.044,2.417.01,4.836.015,7.254.011,4.634,1.521,6.17,6.118,6.18Q2367.461,1979.429,2377.382,1979.414Zm3.734-33.246a14.756,14.756,0,0,1,7.821,6.454c.787,1.3,2.434.546,3.632.458.943-.068.457-1.217.461-1.856.042-6.156.008-12.313.039-18.469.006-1.262-.146-2.046-1.742-2.035-9.3.061-18.6.044-27.908.013-1.256,0-1.874.358-1.866,1.737.036,6.522.013,13.045.021,19.568,0,.4-.138.863.39,1.122.99.486,3.719-.162,4.264-1.116a11.9,11.9,0,0,1,6.133-5.334c1.2-.469,1.038-.885.416-1.68-1.665-2.125-3.265-4.3-4.948-6.412-.852-1.068-.771-1.765.269-2.753a12.069,12.069,0,0,1,9.135-3.5c3.628.053,6.568.745,9.213,3.318,1.262,1.228,1.274,1.949.249,3.2C2384.814,1941.2,2383.065,1943.608,2381.116,1946.168Zm-23.124,16.3c12.6,0,24.871-.021,37.142.024,1.822.007,1.541-.773.879-1.805a11.71,11.71,0,0,0-5.537-4.606c-.655,1.852.667,2.043,1.69,2.519.591.274,1.212.654.869,1.5-.295.729-.922.689-1.463.425a33.487,33.487,0,0,0-7.279-2.075c-1.24-.289-2-.952-.554-1.965.753-.527.25-.879.041-1.226a7.161,7.161,0,0,0-6.174-3.829,7.08,7.08,0,0,0-6.516,3.619c-.314.5-.658.863-.024,1.477,1.21,1.172.452,1.685-.793,1.96a34.82,34.82,0,0,0-6.481,1.751c-.7.305-1.592.958-2.065-.1-.532-1.187.656-1.386,1.386-1.766,1.308-.683,1.312-.677,1.229-2.434C2361.6,1957.379,2359.094,1959.015,2357.992,1962.465Zm-.064-20.521c0,3.151-.035,6.3.031,9.451.013.63-.618,1.783.822,1.778,1.413,0,.84-1.14.845-1.787.043-6.007.021-12.015.027-18.024,0-3.915.78-4.677,4.749-4.679,3.561,0,7.121,0,10.681,0,.624,0,1.369.186,1.311-.908-.047-.908-.658-.8-1.227-.8-4.069,0-8.141-.1-12.206.03-3.4.105-4.959,1.825-5.019,5.275C2357.886,1935.495,2357.93,1938.72,2357.928,1941.944Zm38.953-.066c0-3.149.037-6.3-.01-9.45-.052-3.485-1.721-5.327-5.144-5.43-3.991-.121-7.99-.031-11.985-.034-.656,0-1.37-.111-1.352.915.019,1.115.86.785,1.429.789,3.706.025,7.41,0,11.115.018,3.225.018,4.179.974,4.184,4.169.009,6.3,0,12.6.006,18.9,0,.683-.254,1.519.982,1.446,1.137-.069.753-.882.758-1.432C2396.9,1948.471,2396.88,1945.175,2396.88,1941.878Zm-30.494,15.171c1.564.205,1.995-.687,2.424-1.787a9.321,9.321,0,0,1,8.611-5.917,9.445,9.445,0,0,1,8.562,6.02,5.044,5.044,0,0,0,.511,1.191,1.323,1.323,0,0,0,1.352.518c.733-.221.305-.861.186-1.276a11,11,0,0,0-3.76-5.732A11.117,11.117,0,0,0,2366.387,1957.049Zm35.387,5.223a42.48,42.48,0,0,1-2.947-4.809c-1.079-2.4-2.809-2.722-5.257-2.149,1.8,1.533,3.8,2.863,4.426,5.031C2398.614,1962.489,2399.74,1962.824,2401.774,1962.272Zm-48.923.141c1.289-.043,2.852.6,3.161-.421.884-2.93,2.961-4.793,5.6-7.068-1.947.515-3.55-.586-4.583.9C2355.6,1957.891,2354.331,1960.064,2352.852,1962.413Zm22.13-24.073c.791,2.482,1.528,4.793,2.405,7.54.5-1.577.843-2.6,1.156-3.64C2379.814,1938.039,2379.811,1938.038,2374.981,1938.34Zm-.744,5.406c-.542-5-1.027-5.636-4.017-5.357Zm10.221-5.263c-2.817-.427-3.7.7-3.579,4.714Zm-.964-2.485c-1.045-.874-1.77-1.851-3.362-1.311A2.584,2.584,0,0,0,2383.495,1936Zm-12.152.039a2.483,2.483,0,0,0,3.232-1.34C2373.073,1934.126,2372.289,1935.018,2371.343,1936.037Zm9.336,7.18-.139-.146a1.231,1.231,0,0,0-.127.264c-.007.032.08.086.124.13Z" transform="translate(-2349.092 -1925.028)" fill="#743386"/>
    <path id="Path_1817" data-name="Path 1817" d="M2382.725,1944.4l-.142.249c-.044-.044-.131-.1-.124-.131a1.215,1.215,0,0,1,.127-.264Z" transform="translate(-2351.137 -1926.207)" fill="#743386"/>
    <path id="Path_1818" data-name="Path 1818" d="M2378.762,1969.04c1.81,0,3.62-.017,5.429,0a2.812,2.812,0,0,1,.219,5.615c-3.83.141-7.674.156-11.5,0a2.807,2.807,0,0,1,.208-5.607C2375,1969.007,2376.881,1969.04,2378.762,1969.04Zm-.035,3.622c1.671,0,3.342.011,5.013-.006.575-.007,1.286,0,1.282-.81,0-.734-.66-.927-1.252-.93-3.414-.022-6.828-.015-10.242,0-.647,0-1.18.286-1.14,1.025.048.876.789.7,1.327.713C2375.386,1972.68,2377.058,1972.663,2378.728,1972.662Z" transform="translate(-2350.391 -1927.725)" fill="#743386"/>
  </g>
</svg>
