<svg xmlns="http://www.w3.org/2000/svg" width="146" height="146" viewBox="0 0 146 146">
  <g id="Group_3" data-name="Group 3" transform="translate(0.297 0.016)">
    <g id="Ellipse_10" data-name="Ellipse 10" transform="translate(-0.297 -0.016)" fill="none" stroke="#851753" stroke-width="1">
      <circle cx="73" cy="73" r="73" stroke="none"/>
      <circle cx="73" cy="73" r="72.5" fill="none"/>
    </g>
    <g id="Group_2368" data-name="Group 2368" transform="translate(15.639 15.639)">
      <g id="Group_2364" data-name="Group 2364" transform="translate(0 0)">
        <g id="Group_2361" data-name="Group 2361" transform="translate(0 0)">
          <g id="Group_2360" data-name="Group 2360" transform="translate(59.266 25.807)">
            <g id="Group_2358" data-name="Group 2358" transform="translate(0 0)">
              <g id="XMLID_1365_" transform="translate(0 0)">
                <g id="XMLID_76_">
                  <path id="XMLID_99_" d="M37.457,73.1a3.7,3.7,0,0,0,.684-6.306,2.995,2.995,0,0,0-1.357-4.855v-.588a.542.542,0,0,1,.363-.5,3.537,3.537,0,1,0-4.781-3.311.882.882,0,0,0,1.763,0,1.773,1.773,0,0,1,1.9-1.769,1.774,1.774,0,0,1,.5,3.429,2.32,2.32,0,0,0-1.505,2.155v.588A2.995,2.995,0,0,0,33.664,66.8a3.7,3.7,0,0,0,.684,6.306L28.927,79.92a8.914,8.914,0,0,0,9.491,14.1.882.882,0,0,0-.5-1.692,7.15,7.15,0,0,1-7.615-11.308l5.6-7.037,5.6,7.037a7.162,7.162,0,0,1,1.263,6.468.882.882,0,1,0,1.692.5,8.928,8.928,0,0,0-1.575-8.062Zm-2.789-8.3A1.234,1.234,0,1,1,35.9,66.04,1.236,1.236,0,0,1,34.668,64.806Zm1.234,3a1.94,1.94,0,1,1-1.94,1.94A1.942,1.942,0,0,1,35.9,67.8Z" transform="translate(-26.989 -49.239)" fill="#743386"/>
                  <path id="XMLID_1174_" d="M79.969,329.68l-3.249-4.086a.882.882,0,0,0-1.38,0l-3.249,4.086a5.033,5.033,0,1,0,7.878,0Zm-1.627,5.444a3.27,3.27,0,0,1-4.871-4.347l2.559-3.218,2.559,3.218A3.268,3.268,0,0,1,78.342,335.124Z" transform="translate(-67.117 -296.585)" fill="#743386"/>
                  <path id="XMLID_1675_" d="M298.7,25.92,293.283,19.1a3.7,3.7,0,0,0,.684-6.306,3,3,0,0,0-1.357-4.855V7.353a.542.542,0,0,1,.363-.5,3.537,3.537,0,0,0-1-6.839,3.506,3.506,0,0,0-2.662.942,3.55,3.55,0,0,0-1.124,2.586.882.882,0,0,0,1.763,0,1.773,1.773,0,0,1,1.9-1.769,1.774,1.774,0,0,1,.5,3.429,2.32,2.32,0,0,0-1.505,2.155v.588A2.995,2.995,0,0,0,289.49,12.8a3.7,3.7,0,0,0,.684,6.306l-5.421,6.817a8.912,8.912,0,1,0,13.951,0Zm-8.21-15.114a1.234,1.234,0,1,1,1.234,1.234A1.236,1.236,0,0,1,290.494,10.807Zm1.234,3a1.94,1.94,0,1,1-1.939,1.94A1.942,1.942,0,0,1,291.728,13.8Zm5.055,22.718a7.149,7.149,0,0,1-10.65-9.5l5.6-7.037,5.6,7.037A7.145,7.145,0,0,1,296.783,36.522Z" transform="translate(-260.261 -0.001)" fill="#743386"/>
                  <path id="XMLID_1684_" d="M332.546,271.595a.882.882,0,0,0-1.38,0l-3.249,4.086a5.033,5.033,0,1,0,7.878,0Zm1.622,9.53a3.27,3.27,0,0,1-4.871-4.347l2.559-3.218,2.559,3.218A3.268,3.268,0,0,1,334.168,281.125Z" transform="translate(-300.388 -247.347)" fill="#743386"/>
                  <path id="XMLID_1686_" d="M183.376,465.321a.88.88,0,1,0,.624.258A.89.89,0,0,0,183.376,465.321Z" transform="translate(-168.784 -424.297)" fill="#743386"/>
                </g>
              </g>
            </g>
          </g>
          <g id="Group_2357" data-name="Group 2357" transform="translate(17.228 48.405)">
            <path id="Path_2265" data-name="Path 2265" d="M112.091,193.31a9.3,9.3,0,1,0,9.3-9.3A9.3,9.3,0,0,0,112.091,193.31Zm17.446,0a8.142,8.142,0,1,1-8.142-8.142A8.142,8.142,0,0,1,129.537,193.31Z" transform="translate(-109.18 -170.629)" fill="#743386"/>
            <path id="Path_2266" data-name="Path 2266" d="M79.61,8.147V11.4a12.213,12.213,0,1,0,9.3,0V8.147a.577.577,0,0,0-.315-.509l2.516-3.2c.01-.013.015-.027.023-.041a.479.479,0,0,0,.033-.044c.005-.01.007-.021.012-.031a.59.59,0,0,0,.026-.07.566.566,0,0,0,.02-.081.607.607,0,0,0,.006-.073.556.556,0,0,0,0-.083.513.513,0,0,0-.013-.073.565.565,0,0,0-.026-.081c-.005-.012-.006-.025-.012-.037s-.015-.02-.021-.032-.01-.025-.018-.037L88.82.264a.618.618,0,0,0-.044-.051A.675.675,0,0,0,88.73.16.566.566,0,0,0,88.652.1c-.013-.009-.026-.02-.04-.027A.547.547,0,0,0,88.527.04a.454.454,0,0,0-.058-.019.523.523,0,0,0-.074-.009A.537.537,0,0,0,88.333,0H80.191c-.02,0-.039.006-.058.008a.565.565,0,0,0-.077.01c-.018,0-.035.012-.053.018a.571.571,0,0,0-.087.035C79.9.083,79.89.093,79.877.1A.547.547,0,0,0,79.8.16a.476.476,0,0,0-.045.052.543.543,0,0,0-.045.052L77.382,3.753c-.008.012-.011.025-.018.037a.329.329,0,0,0-.021.032c-.005.012-.007.024-.012.037a.559.559,0,0,0-.026.081.515.515,0,0,0-.013.073.569.569,0,0,0,0,.083.607.607,0,0,0,.006.073.562.562,0,0,0,.02.081.6.6,0,0,0,.026.07c0,.01.006.022.012.031a.483.483,0,0,0,.033.044c.009.013.013.028.023.041l2.516,3.2a.577.577,0,0,0-.315.509Zm15.7,14.539A11.049,11.049,0,1,1,80.737,12.218h7.051A11.023,11.023,0,0,1,95.312,22.685ZM80.773,11.054V8.728l1.835,2.326ZM85.5,3.494h-2.48l1.24-1.861Zm.315,1.163-.161.564L84.262,10.1l-.6-2.113-.951-3.329Zm.1,6.4,1.827-2.326.008,2.326Zm-.28-1.526,1.392-4.871h2.435Zm1.894-6.034.876-1.752,1.168,1.752Zm-1.013-.575L85.349,1.168h2.044Zm-3.34-1.751L82.008,2.919l-.876-1.751Zm-3.057.575L81,3.494H78.951ZM81.5,4.657l1.392,4.871L79.062,4.657Z" transform="translate(-72.046 -0.005)" fill="#743386"/>
          </g>
          <g id="Group_2359" data-name="Group 2359">
            <path id="Path_2267" data-name="Path 2267" d="M409.815-623.423c0-1.749-.333-3.1.091-4.141.451-1.109,1.7-2.75,2.458-2.676,1.121.111,2.881,1.417,3.022,2.407a110.906,110.906,0,0,1,.685,11.225,2.7,2.7,0,0,1-2.554,3.11c-3.9.519-7.795,1.207-11.711,1.376-1.046.046-2.73-1.328-3.12-2.411-.638-1.774.671-2.964,2.529-3.261,1.442-.231,2.9-.388,4.981-.662a49.579,49.579,0,0,0-20.707-9.629c-29.06-5.8-55.643,11.84-61.525,40.872a50,50,0,0,0,2.7,28.18c.133.35.267.7.429,1.038.89,1.85.89,3.619-1.183,4.516-2.226.963-3.564-.382-4.288-2.377-.955-2.636-2.008-5.256-2.7-7.965-8.12-31.9,12.83-64.559,45.2-70.31a57.408,57.408,0,0,1,43.923,9.491Z" transform="translate(-317.168 635.124)" fill="#743386"/>
            <path id="Path_2268" data-name="Path 2268" d="M352.069-506.741c0,1.621.34,3.024-.1,4.118s-1.611,2.587-2.528,2.634c-.984.05-2.815-1.273-2.938-2.178a74.812,74.812,0,0,1-.651-11.776,3.917,3.917,0,0,1,2.552-2.689c3.749-.772,7.584-1.155,11.4-1.569,1.809-.2,3.438.655,3.286,2.537a4.751,4.751,0,0,1-2.388,3.12c-1.229.642-2.882.474-4.825.717a22.016,22.016,0,0,0,1.8,1.618c30.868,21.531,73.882,3.682,80.315-33.368a50.982,50.982,0,0,0-3.372-28.929c-.762-1.818-.962-3.6,1.223-4.479,2.034-.82,3.429.143,4.168,2.134.1.264.228.515.328.778,7,18.508,5.618,36.283-5.169,52.973-16.988,26.287-52.035,33.792-78.856,17.082C354.987-504.843,353.684-505.7,352.069-506.741Z" transform="translate(-329.684 609.868)" fill="#743386"/>
          </g>
        </g>
      </g>
    </g>
  </g>
</svg>
