<svg xmlns="http://www.w3.org/2000/svg" width="146" height="146" viewBox="0 0 146 146">
  <g id="Group_5" data-name="Group 5" transform="translate(-0.347 0.016)">
    <g id="Ellipse_7" data-name="Ellipse 7" transform="translate(0.347 -0.016)" fill="none" stroke="#851753" stroke-width="1">
      <circle cx="73" cy="73" r="73" stroke="none"/>
      <circle cx="73" cy="73" r="72.5" fill="none"/>
    </g>
    <g id="Group_2470" data-name="Group 2470" transform="translate(17.988 16.203)">
      <g id="Group_2456" data-name="Group 2456" transform="translate(4.777 0)">
        <path id="Path_2444" data-name="Path 2444" d="M474.049,122.877c.705-2.031-.529-5.068,2.825-4.939,3.245.125,2.445,3.012,2.8,5.089,3.682.592,7.373.9,10.911,1.8,18.38,4.684,30.554,15.835,35.3,34.5a9.713,9.713,0,0,1-.072,2.649c-.819-.422-1.643-.853-2.469-1.256-1.778-.853-3.538-2.367-5.336-2.409a103.11,103.11,0,0,0-13.2.866A3.76,3.76,0,0,0,502.564,161c-.928,1.551-1.651,1.352-2.867.308-1.24-1.065-2.666-2.513-4.111-2.627a79.876,79.876,0,0,0-13.248,0c-1.447.125-2.931,1.713-4.066,2.946-1.061,1.155-1.526.927-2.415-.087a7.734,7.734,0,0,0-2.893-2.345c-5.181-1.781-10.661-2.209-15.593.083-3.1,1.441-4.72,2.4-8.231.087-4.166-2.746-9.725-2.142-14.685-.673-1.388.41-2.549,1.564-3.867,2.275a17.539,17.539,0,0,1-2.4.885,6.242,6.242,0,0,1-.422-2.349c1.747-7.3,4.673-14.04,9.731-19.711,9.271-10.395,20.986-15.7,34.757-16.737C472.814,123.013,473.372,122.943,474.049,122.877Z" transform="translate(-427.729 -117.934)" fill="#743386" fill-rule="evenodd"/>
      </g>
      <g id="Group_2458" data-name="Group 2458" transform="translate(28.89 46.618)">
        <g id="Group_2457" data-name="Group 2457">
          <path id="Path_2445" data-name="Path 2445" d="M471.642,156.016c0,4.659.059,9.129-.038,13.6a2.55,2.55,0,0,1-2.5,2.632c-3.549.482-7.117.868-10.676,1.275-1.344.157-2.7.259-4.141.4V144.8c.429.824.713,1.384,1.008,1.944,1.1,2.116,2.243,4.221,3.313,6.355a4.9,4.9,0,0,0,4.909,2.933C466.172,155.963,468.83,156.016,471.642,156.016Z" transform="translate(-428.181 -140.615)" fill="#743386" fill-rule="evenodd"/>
          <path id="Path_2446" data-name="Path 2446" d="M443.957,155.764c2.94,0,5.68-.023,8.428.006a4.652,4.652,0,0,0,4.483-2.742c1.386-2.661,2.782-5.319,4.374-7.94v28.553c-1.337-.125-2.634-.227-3.931-.365-3.434-.374-6.872-.722-10.3-1.161-2.271-.293-3.054-1.267-3.054-3.546Z" transform="translate(-437.385 -140.359)" fill="#743386" fill-rule="evenodd"/>
          <path id="Path_2447" data-name="Path 2447" d="M469.73,156.035c-2.22,0-4.438-.008-6.658,0a2.9,2.9,0,0,1-2.816-1.632c-1.819-3.5-3.651-6.985-5.446-10.493-.159-.306-.267-.849-.108-1.055a1.359,1.359,0,0,1,1.061-.261c4.612.565,9.22,1.182,13.83,1.751a3.64,3.64,0,0,1,2.8,1.776c1.7,2.751,3.417,5.5,5.1,8.258.734,1.206.473,1.641-.976,1.649C474.255,156.045,471.992,156.035,469.73,156.035Z" transform="translate(-427.88 -142.587)" fill="#743386" fill-rule="evenodd"/>
          <path id="Path_2448" data-name="Path 2448" d="M448.576,156.027c-2.269,0-4.525.017-6.789,0-1.375-.013-1.63-.439-.927-1.581,1.709-2.8,3.46-5.567,5.162-8.369,1-1.643,2.659-1.742,4.281-1.948q6.121-.78,12.249-1.511c.367-.045,1.008-.009,1.08.163a1.655,1.655,0,0,1-.115,1.21c-1.762,3.472-3.568,6.923-5.359,10.383a2.908,2.908,0,0,1-2.8,1.656Z" transform="translate(-440.481 -142.579)" fill="#743386" fill-rule="evenodd"/>
        </g>
      </g>
      <g id="Group_2459" data-name="Group 2459" transform="translate(4.247 64.196)">
        <path id="Path_2449" data-name="Path 2449" d="M432.941,154.511l-1.3-2.628-1.3,2.628-2.9.421,2.1,2.045-.495,2.888,2.593-1.363,2.6,1.363-.495-2.888,2.1-2.045Z" transform="translate(-427.449 -151.883)" fill="#743386"/>
      </g>
      <g id="Group_2460" data-name="Group 2460" transform="translate(94.277 64.196)">
        <path id="Path_2450" data-name="Path 2450" d="M480.556,154.511l-1.3-2.628-1.3,2.628-2.9.421,2.1,2.045-.5,2.888,2.593-1.363,2.6,1.363-.495-2.888,2.094-2.045Z" transform="translate(-475.06 -151.883)" fill="#743386"/>
      </g>
      <g id="Group_2461" data-name="Group 2461" transform="translate(16.805 69.439)">
        <path id="Path_2451" data-name="Path 2451" d="M434.761,154.656l-.671.974a40.208,40.208,0,0,0,74.189,0l-.675-.966a38.794,38.794,0,0,1-4.847,8.651l-.015.023c-.147.2-.291.414-.439.615-.454.592-.927,1.165-1.407,1.723l-.136.153c-.751.868-1.541,1.689-2.364,2.477-.1.106-.212.216-.325.321a38.878,38.878,0,0,1-3.774,3.156c-.227.163-.452.316-.677.475a38.41,38.41,0,0,1-3.822,2.356c-.2.11-.4.217-.6.318-1.118.581-2.271,1.1-3.442,1.573-.255.1-.511.2-.771.3a39.445,39.445,0,0,1-24.656.972c-.374-.106-.739-.223-1.108-.342a38.894,38.894,0,0,1-7.715-3.415c-.221-.131-.448-.27-.669-.4-1.048-.643-2.074-1.329-3.065-2.073-.136-.1-.268-.21-.4-.31-.745-.577-1.477-1.18-2.186-1.808-.112-.1-.229-.2-.337-.3-.775-.707-1.52-1.454-2.248-2.229-.078-.085-.151-.17-.225-.251-.779-.849-1.537-1.726-2.25-2.653a.474.474,0,0,0-.04-.051c-.027-.03-.045-.062-.066-.091-.77-1-1.475-2.044-2.139-3.114-.008-.006-.011-.017-.019-.025A38.835,38.835,0,0,1,434.761,154.656Z" transform="translate(-434.09 -154.656)" fill="#743386"/>
      </g>
      <g id="Group_2462" data-name="Group 2462" transform="translate(0 76.22)">
        <path id="Path_2452" data-name="Path 2452" d="M479.11,193.886a57.072,57.072,0,0,1-52.761-35.472l-1.146-.172c.015.028.023.045.034.062a57.976,57.976,0,0,0,107.738,0,.188.188,0,0,0,.03-.062l-1.163.172A57.019,57.019,0,0,1,479.11,193.886Z" transform="translate(-425.203 -158.242)" fill="#743386"/>
      </g>
      <g id="Group_2469" data-name="Group 2469" transform="translate(2.53 71.572)">
        <g id="Group_2463" data-name="Group 2463" transform="translate(74.32 22.936)">
          <path id="Path_2453" data-name="Path 2453" d="M467.65,167.917a1.88,1.88,0,0,0-1.076.35l-.73.448,1.233,2.025.872-.528c.426-.263.666-.526.705-.8a1.4,1.4,0,0,0-.252-.936A1,1,0,0,0,467.65,167.917Z" transform="translate(-465.844 -167.913)" fill="#743386"/>
        </g>
        <g id="Group_2464" data-name="Group 2464" transform="translate(31.463 25.739)">
          <path id="Path_2454" data-name="Path 2454" d="M445.037,169.84,444,169.4l-.819,1.927,1.012.429a1.561,1.561,0,0,0,1.07.168,1.088,1.088,0,0,0,.588-.654.93.93,0,0,0,.036-.836A1.77,1.77,0,0,0,445.037,169.84Z" transform="translate(-443.18 -169.396)" fill="#743386"/>
        </g>
        <g id="Group_2465" data-name="Group 2465" transform="translate(43.764 29.336)">
          <path id="Path_2455" data-name="Path 2455" d="M451.041,171.4l-.834-.1-.522,4.26.945.117a2.2,2.2,0,0,0,1.645-.35,2.118,2.118,0,0,0,.741-1.507,2.165,2.165,0,0,0-.357-1.656A2.287,2.287,0,0,0,451.041,171.4Z" transform="translate(-449.685 -171.298)" fill="#743386"/>
        </g>
        <g id="Group_2466" data-name="Group 2466" transform="translate(68.802 25.884)">
          <path id="Path_2456" data-name="Path 2456" d="M464.825,169.5a1.864,1.864,0,0,0-1.112.2l-.787.338.942,2.18.934-.4a1.3,1.3,0,0,0,.813-.7,1.425,1.425,0,0,0-.13-.959A.99.99,0,0,0,464.825,169.5Z" transform="translate(-462.926 -169.472)" fill="#743386"/>
        </g>
        <g id="Group_2468" data-name="Group 2468">
          <g id="Group_2467" data-name="Group 2467">
            <path id="Path_2457" data-name="Path 2457" d="M520.2,162.183l-4.4-6.4a41.391,41.391,0,0,1-75.774,0l-4.391,6.4-9.09-1.369a55.77,55.77,0,0,0,102.746,0Zm-84.391,6.8,5.877-3.914.834,1.252-5.875,3.916Zm5.034,6.516,1.239-5.325-3.343,2.9-.985-1.14,5.336-4.623.923,1.065-1.267,5.48,3.432-2.974.985,1.135-5.329,4.625Zm7.632,4.181a1.949,1.949,0,0,1-1.511.739,2.645,2.645,0,0,1-1.755-.7,4.07,4.07,0,0,1-1.411-2.808l1.433-.306a3.108,3.108,0,0,0,.9,2.067,1.014,1.014,0,0,0,.62.276.591.591,0,0,0,.5-.233.578.578,0,0,0,.136-.548,3.159,3.159,0,0,0-.516-.93,4.288,4.288,0,0,1-.828-1.7,1.838,1.838,0,0,1,.533-1.479,1.862,1.862,0,0,1,1.524-.739,2.7,2.7,0,0,1,1.673.69,3.963,3.963,0,0,1,.876,1.057,3.548,3.548,0,0,1,.461,1.286l-1.326.39a2.91,2.91,0,0,0-.942-1.7.89.89,0,0,0-.577-.24.629.629,0,0,0-.484.24.583.583,0,0,0-.113.547,4.8,4.8,0,0,0,.664,1.118,3.368,3.368,0,0,1,.666,1.528A1.906,1.906,0,0,1,448.472,179.682Zm4.616,4.516a3.029,3.029,0,0,1-3.53-2.192,3.18,3.18,0,0,1,.543-2.43l2.076-3.36,1.28.794-2.05,3.317a2.115,2.115,0,0,0-.384,1.333,1.217,1.217,0,0,0,.607.951,1.19,1.19,0,0,0,1.114.113,2.187,2.187,0,0,0,1.023-.942l2.046-3.315,1.282.792-2.074,3.358A3.247,3.247,0,0,1,453.088,184.2Zm6.959,1.3.586,3-1.706-.726-.5-2.659-.957-.41-.881,2.074-1.386-.592,2.759-6.5,2.356,1a3.552,3.552,0,0,1,1.851,1.39,2.184,2.184,0,0,1-.085,1.906A2.083,2.083,0,0,1,460.047,185.5Zm7.522.552-.346,1.3-2.918-.787-.382,1.416,3.351.9-.365,1.348-4.8-1.3,1.83-6.815,4.7,1.263-.363,1.356-3.247-.87-.376,1.4Zm7.579,1.732a3.559,3.559,0,0,1-1.252,2.473,3.84,3.84,0,0,1-2.965.6l-2.294-.28.86-7.006,2.367.291a3.838,3.838,0,0,1,2.636,1.252A3.39,3.39,0,0,1,475.148,187.786Zm8,2.8a2.665,2.665,0,0,1-1.749.7,4.079,4.079,0,0,1-2.963-1.057l.828-1.208a3.132,3.132,0,0,0,2.074.872,1.024,1.024,0,0,0,.639-.227.6.6,0,0,0,.2-.52.6.6,0,0,0-.282-.49,3.289,3.289,0,0,0-1.015-.314,4.205,4.205,0,0,1-1.768-.654,1.814,1.814,0,0,1-.635-1.437,1.837,1.837,0,0,1,.59-1.588,2.723,2.723,0,0,1,1.685-.656,3.962,3.962,0,0,1,1.365.161,3.428,3.428,0,0,1,1.216.613l-.686,1.2a2.877,2.877,0,0,0-1.855-.581.886.886,0,0,0-.582.223.605.605,0,0,0-.182.507.551.551,0,0,0,.291.473,4.694,4.694,0,0,0,1.252.352,3.359,3.359,0,0,1,1.537.647,1.884,1.884,0,0,1,.62,1.409A1.947,1.947,0,0,1,483.15,190.585Zm6.5-.573-.554-2.723-2.63.537.55,2.719-1.473.3-1.407-6.917,1.481-.3.584,2.891,2.628-.533-.582-2.891,1.473-.3,1.407,6.917Zm3.332-.9-2.142-6.726,1.437-.461,2.137,6.728Zm6.471-5.251a3.441,3.441,0,0,1-1.8,1.445l-.819.352.775,1.81-1.378.6-2.806-6.476,2.186-.947a3.364,3.364,0,0,1,2.332-.323,2.461,2.461,0,0,1,1.422,1.5A2.358,2.358,0,0,1,499.454,183.864Zm5.705-3.3a3.463,3.463,0,0,1-1.588,1.675l-.76.465,1.016,1.683-1.282.785-3.678-6.026,2.038-1.242a3.358,3.358,0,0,1,2.263-.641,2.458,2.458,0,0,1,1.615,1.286A2.359,2.359,0,0,1,505.159,180.569Zm3.084.917-4.281-5.616,1.2-.913,4.274,5.618Zm6.185-5.4-5.391-.925,3.088,3.171-1.08,1.051-4.926-5.062,1.015-.983,5.541.945-3.173-3.256,1.074-1.049,4.928,5.06Zm4.417-5.238a3.345,3.345,0,0,1-2.3,1.418,3.85,3.85,0,0,1-4.219-3.075,3.333,3.333,0,0,1,.6-2.625,3.573,3.573,0,0,1,2.284-1.462l.5,1.327a2.953,2.953,0,0,0-.957.344,2.189,2.189,0,0,0-.609.575,1.967,1.967,0,0,0-.352,1.532,2.529,2.529,0,0,0,2.591,1.9,1.792,1.792,0,0,0,1.273-.739,2.414,2.414,0,0,0,.511-1.24l-1.57-1.135.891-1.233,2.031,1.469A3.462,3.462,0,0,1,518.845,170.845Z" transform="translate(-426.541 -155.784)" fill="#743386"/>
          </g>
        </g>
      </g>
    </g>
  </g>
</svg>
