<svg xmlns="http://www.w3.org/2000/svg" width="146" height="146" viewBox="0 0 146 146">
  <g id="Group_7" data-name="Group 7" transform="translate(0.36 0.016)">
    <g id="Ellipse_8" data-name="Ellipse 8" transform="translate(-0.36 -0.016)" fill="none" stroke="#851753" stroke-width="1">
      <circle cx="73" cy="73" r="73" stroke="none"/>
      <circle cx="73" cy="73" r="72.5" fill="none"/>
    </g>
    <g id="Group_2383" data-name="Group 2383" transform="translate(16.885 17.6)">
      <path id="Path_2279" data-name="Path 2279" d="M180.853,210.054h22.657c.3-.585-.129-.783-.361-1.036q-11.667-12.7-23.344-25.4c-.588-.64-.99-1.455-1.965-.231-6.926,8.7-13.918,17.344-20.885,26.011a2.165,2.165,0,0,0-.166.527h20.794c.428.6.1.905-.078,1.21-3.355,5.648-6.745,11.274-10.055,16.947a2.684,2.684,0,0,1-2.688,1.53c-8.53-.065-17.061-.035-25.591-.033A11.326,11.326,0,0,1,127.9,219.3a12.436,12.436,0,0,1,3.479-9.882q19.146-21.53,38.33-43.025c1.345-1.508,2.663-3.051,4.113-4.454,3.2-3.1,5.891-3.082,9.019.111,6.1,6.229,12.136,12.522,18.2,18.783,9.1,9.391,18.1,18.892,27.359,28.124,5.566,5.549,4,13.716-.63,17.881a10.061,10.061,0,0,1-6.882,2.74c-8.594.018-17.187,0-25.781.012a1.815,1.815,0,0,1-1.787-.755C189.261,222.678,185.165,216.537,180.853,210.054Z" transform="translate(-124.283 -159.638)" fill="#743386"/>
      <path id="Path_2280" data-name="Path 2280" d="M219.889,361.254c-.5.038-1,.11-1.5.11q-43.6.008-87.206,0c-.5,0-1-.069-1.5-.106-.1-.43.055-1.144-.811-.754l-10.4-18.092a2.01,2.01,0,0,0,.232-.223c4.443,3.215,8.615,6.772,12.879,10.213.295,1.4,1.421.789,2.161.79q42.577.05,85.154.027c.5,0,1.009,0,1.511-.041.479-.036.579-.406.619-.8l9.185-9.717.512.3-9.513,17.895C220.719,360.819,220.2,360.713,219.889,361.254Z" transform="translate(-118.47 -272.968)" fill="#743386"/>
      <path id="Path_2281" data-name="Path 2281" d="M246.407,260.1l-.192-.83a1.462,1.462,0,0,0,.007-1.846q.086-.377.172-.754c.283-.053.659-.031.695-.4.014-.141-.276-.313-.427-.471a.274.274,0,0,1,.161-.31,22.611,22.611,0,0,0,3.862-3.392.327.327,0,0,1,.35-.089,2.6,2.6,0,0,0,3.093-.014.316.316,0,0,1,.35.083c.1.515.231.935.782.311a6.37,6.37,0,0,1,3.853,6.48,6.575,6.575,0,0,1-4.606,5.837,6.2,6.2,0,0,1-6.982-2.327C247.877,261.263,247.64,260.437,246.407,260.1Z" transform="translate(-197.776 -216.96)" fill="#743386"/>
      <path id="Path_2282" data-name="Path 2282" d="M242.491,369.019c-.04.4-.14.767-.619.8-.5.038-1.008.041-1.511.041q-42.577,0-85.154-.027c-.74,0-1.866.607-2.161-.79,7.074-.017,14.148-.047,21.222-.047Q208.38,369,242.491,369.019Z" transform="translate(-139.935 -289.613)" fill="#743386"/>
      <path id="Path_2283" data-name="Path 2283" d="M251.681,252.3a22.612,22.612,0,0,1-3.862,3.392A5.205,5.205,0,0,1,251.681,252.3Z" transform="translate(-198.771 -217.164)" fill="#743386"/>
      <path id="Path_2284" data-name="Path 2284" d="M262.018,251.46a2.6,2.6,0,0,1-3.093.014A3.558,3.558,0,0,1,262.018,251.46Z" transform="translate(-205.666 -216.427)" fill="#743386"/>
      <path id="Path_2285" data-name="Path 2285" d="M246.721,273.4c1.233.338,1.47,1.164,1.117,2.28A3.266,3.266,0,0,1,246.721,273.4Z" transform="translate(-198.09 -230.265)" fill="#743386"/>
      <path id="Path_2286" data-name="Path 2286" d="M245.925,266.344a1.462,1.462,0,0,1-.007,1.846A2.4,2.4,0,0,1,245.925,266.344Z" transform="translate(-197.479 -225.882)" fill="#743386"/>
      <path id="Path_2287" data-name="Path 2287" d="M246.914,262.064c.151.158.441.33.427.471-.036.367-.411.344-.695.4A.932.932,0,0,1,246.914,262.064Z" transform="translate(-198.027 -223.225)" fill="#743386"/>
      <path id="Path_2288" data-name="Path 2288" d="M268.786,252.536c-.551.624-.686.2-.782-.311A.764.764,0,0,1,268.786,252.536Z" transform="translate(-211.302 -217.109)" fill="#743386"/>
      <path id="Path_2289" data-name="Path 2289" d="M385.934,391.756c.315-.541.829-.435,1.32-.4C386.979,392.022,386.45,391.867,385.934,391.756Z" transform="translate(-284.515 -303.47)" fill="#743386"/>
    </g>
    <text id="_916" data-name="916" transform="translate(67.64 128.983)" fill="#743386" font-size="25" font-family="Karla" font-weight="500"><tspan x="-19.019" y="0">916</tspan></text>
  </g>
</svg>
