<svg xmlns="http://www.w3.org/2000/svg" width="146" height="146" viewBox="0 0 146 146">
  <g id="Group_8" data-name="Group 8" transform="translate(-0.245 0.016)">
    <g id="Group_3738" data-name="Group 3738">
      <g id="Ellipse_7" data-name="Ellipse 7" transform="translate(0.245 -0.016)" fill="none" stroke="#851753" stroke-width="1">
        <circle cx="73" cy="73" r="73" stroke="none"/>
        <circle cx="73" cy="73" r="72.5" fill="none"/>
      </g>
      <g id="Group_3737" data-name="Group 3737" transform="translate(20.561 29.701)">
        <g id="Group_1607" data-name="Group 1607">
          <g id="Group_1605" data-name="Group 1605">
            <path id="Path_1888" data-name="Path 1888" d="M2744.15,1384.587c2.209.926,2.315-.572,2.632-1.778,1.9-7.242,6.456-11.948,13.673-13.845a18.727,18.727,0,0,1,22.856,13.452c.212.8.449,1.6.641,2.277a1.917,1.917,0,0,0,.424.167c6.947-.085,6.14.075,6.163,6.67.007,1.6,0,3.2,0,4.626l20.656-20.7-20.654-20.609c0,2.328-.005,4.768,0,7.207.011,3.664-.333,4.024-3.879,4.026q-10.016,0-20.032,0c-1.747,0-3.793.14-3.762-2.3.029-2.261,1.981-2.139,3.648-2.135q8.347.021,16.693,0c.835,0,1.669-.068,2.791-.118,0-3.913-.109-7.663.063-11.4.057-1.223.51-2.875,1.382-3.514,1.486-1.09,2.592.455,3.612,1.474q12.44,12.44,24.877,24.881c2.272,2.275,2.272,2.941-.025,5.242-8.286,8.3-16.554,16.619-24.918,24.84-.843.829-2.556,1.7-3.381,1.36-.846-.345-1.476-2.128-1.536-3.317-.191-3.746-.07-7.508-.07-11.236-1.975-.94-2.284.293-2.618,1.595-1.916,7.451-6.584,12.2-14.06,14.062a18.785,18.785,0,0,1-22.466-13.4c-.211-.82-.418-1.638-.613-2.4a2.493,2.493,0,0,0-.6-.176c-6.913.075-5.965-.254-6.048-6.278-.024-1.7,0-3.409,0-4.687-6.845,6.851-13.849,13.865-20.566,20.589l20.585,20.73c0-2.957.078-5.725-.025-8.488-.08-2.212.869-3.1,3.035-3.09,7.192.036,14.383,0,21.572-.005,1.57,0,3.1.284,3.113,2.212s-1.447,2.246-3.056,2.241c-6.575-.017-13.149-.007-20.1-.007,0,3.6,0,6.987,0,10.374a16.194,16.194,0,0,1-.092,2.817c-.395,2.192-2.314,2.862-3.953,1.339-2-1.866-3.891-3.857-5.829-5.794q-10.076-10.077-20.153-20.162c-2.166-2.173-2.157-2.835.048-5.046,8.346-8.362,16.68-16.737,25.1-25.027.8-.785,2.551-1.692,3.149-1.339a4.52,4.52,0,0,1,1.658,3.276C2744.278,1376.944,2744.15,1380.713,2744.15,1384.587Zm35.185,2.719a14.255,14.255,0,1,0-14.427,14.152A14.08,14.08,0,0,0,2779.335,1387.306Z" transform="translate(-2712.508 -1346.241)" fill="#743386"/>
          </g>
          <g id="Group_1606" data-name="Group 1606" transform="translate(45.471 31.672)">
            <path id="Path_1889" data-name="Path 1889" d="M2751.523,1367.386h-2.733a5.455,5.455,0,0,1,.786,2.183h2.628l-.692,2.576h-1.95a5.12,5.12,0,0,1-1.556,3.107,7.291,7.291,0,0,1-3.61,1.614l5.716,6.773v.184h-4.329l-6.33-7.418-.012-2.311h3.1a2.805,2.805,0,0,0,3.034-1.949h-6.446l.679-2.576h5.689a2.74,2.74,0,0,0-2.812-1.609h-3.557l.772-3.177h12.3Z" transform="translate(-2739.127 -1364.783)" fill="#743386"/>
          </g>
        </g>
      </g>
    </g>
  </g>
</svg>
