<svg xmlns="http://www.w3.org/2000/svg" width="146" height="146" viewBox="0 0 146 146">
  <g id="Group_1" data-name="Group 1" transform="translate(-0.162 0.016)">
    <g id="Ellipse_11" data-name="Ellipse 11" transform="translate(0.162 -0.016)" fill="none" stroke="#851753" stroke-width="1">
      <circle cx="73" cy="73" r="73" stroke="none"/>
      <circle cx="73" cy="73" r="72.5" fill="none"/>
    </g>
    <g id="Group_2380" data-name="Group 2380" transform="translate(16.677 18.691)">
      <path id="Path_1897" data-name="Path 1897" d="M2428.833,1375.6a19.877,19.877,0,0,1-1.113,3.484c-1.9,3.884-1.038,7.043,1.938,10.039,5.654,5.689,5.578,8.5-.3,13.94-2.917,2.7-3.437,5.635-1.946,9.267,2.758,6.725,1.282,9.845-5.687,12.055-3.986,1.265-6.14,3.571-6.386,7.958-.379,6.765-3.242,9.185-9.833,8.267-5.047-.7-8.33.859-10.676,5.494-2.429,4.8-6.669,5.827-10.986,2.7-4.38-3.179-8.206-3.472-12.7-.126-4.329,3.226-8.861,2.072-11.375-2.823-2.285-4.445-5.351-6.038-10.309-5.339-6.493.915-9.56-1.844-9.8-8.391-.151-4.15-2.13-6.622-5.935-7.911-7.508-2.545-8.941-5.394-6.1-12.541,1.529-3.84.605-6.829-2.3-9.618-5.5-5.272-5.389-8.387.358-13.586a7.542,7.542,0,0,0,2.257-8.89c-2.843-8.057-1.81-10.357,5.95-12.915,3.721-1.227,5.591-3.5,5.854-7.463.48-7.222,3.167-9.481,10.38-8.51,4.77.643,7.783-1.023,10-5.263,2.7-5.181,6.838-6.148,11.565-2.7,4.154,3.025,7.819,3.063,12,.041,4.664-3.372,9.08-2.405,11.687,2.7,2.409,4.711,5.736,6.052,10.76,5.162,5.562-.988,8.934,1.958,9.361,7.557.467,6.173,1.253,7.161,7.387,9.191C2426.449,1368.567,2428.865,1370.665,2428.833,1375.6Zm-15.711,20.057a35.556,35.556,0,1,0-35.747,35.9A35.685,35.685,0,0,0,2413.122,1395.661Z" transform="translate(-2321.28 -1340.698)" fill="#743386"/>
      <path id="Path_1900" data-name="Path 1900" d="M2383.027,1376.6a25.629,25.629,0,1,1-25.419-25.9A25.825,25.825,0,0,1,2383.027,1376.6Zm-29.25,11.693,18.306-19.11-5.462-5.816-12.23,14.524-6.5-6.064-5.376,5.708Z" transform="translate(-2301.112 -1321.47)" fill="#743386"/>
    </g>
  </g>
</svg>
