<svg xmlns="http://www.w3.org/2000/svg" width="146" height="146" viewBox="0 0 146 146">
  <g id="Group_2" data-name="Group 2" transform="translate(0.38 0.016)">
    <g id="Ellipse_12" data-name="Ellipse 12" transform="translate(-0.38 -0.016)" fill="none" stroke="#851753" stroke-width="1">
      <circle cx="73" cy="73" r="73" stroke="none"/>
      <circle cx="73" cy="73" r="72.5" fill="none"/>
    </g>
    <g id="Group_2365" data-name="Group 2365" transform="translate(39.292 26.57)">
      <g id="Group_1602" data-name="Group 1602" transform="translate(0 0)">
        <g id="Group_1594" data-name="Group 1594" transform="translate(49.972 76.804)">
          <path id="Path_1881" data-name="Path 1881" d="M2535.273,1403.109q-2.855-2.81-5.709-5.618c-1.512-1.5-3.016-3-4.53-4.507a1.674,1.674,0,0,1,2.047-.958c1.16.231,2.334.39,3.5.586a4.406,4.406,0,0,0,5.056-3.521c.158-.832.27-1.674.419-2.619a7.293,7.293,0,0,1,.588.472q3.293,3.284,6.575,6.578c.482.485.945.98.712,1.75s-.845,1.008-1.6,1.123c-1.2.181-2.38.466-3.574.673-.476.083-.731.239-.807.781a25.989,25.989,0,0,1-.667,3.389,10.9,10.9,0,0,1-.92,1.872Z" transform="translate(-2525.033 -1386.473)" fill="#743386"/>
        </g>
        <g id="Group_1595" data-name="Group 1595" transform="translate(20.073 76.856)">
          <path id="Path_1882" data-name="Path 1882" d="M2516.517,1403.085a3.477,3.477,0,0,1-1.061-2.4c-.181-.986-.331-1.977-.577-2.946a1.067,1.067,0,0,0-.659-.656c-1.331-.3-2.683-.5-4.02-.771a1.39,1.39,0,0,1-.945-2.326c2.454-2.519,4.993-4.951,7.565-7.483.137.816.268,1.6.4,2.393a4.387,4.387,0,0,0,5.174,3.676c1.109-.179,2.227-.307,3.323-.54a1.679,1.679,0,0,1,2.081.823c-.011.044-.009.119-.043.154q-4.761,4.782-9.53,9.555c-.189.191-.408.349-.614.523Z" transform="translate(-2508.865 -1386.501)" fill="#743386"/>
        </g>
        <g id="Group_1596" data-name="Group 1596">
          <path id="Path_1883" data-name="Path 1883" d="M2522.534,1420.126c-1.067,1.028-2.057,2.006-3.084,2.944a1.228,1.228,0,0,1-.758.189c-4.655.009-9.31.039-13.962,0a6.653,6.653,0,0,1-6.705-6.737q-.026-32.441,0-64.881a6.649,6.649,0,0,1,6.75-6.689q24.595-.01,49.185,0a6.587,6.587,0,0,1,6.608,6.439c.033,12.743.013,25.487-.13,38.281-.076-.157-.163-.309-.223-.471a5.911,5.911,0,0,0-3.618-3.739c-.813-.285-.93-.7-.928-1.448q.033-15.922.005-31.845a3.477,3.477,0,0,0-.209-1.328,1.782,1.782,0,0,0-1.874-1c-4.593.013-9.187.005-13.778.005h-34.4c-1.935,0-2.491.558-2.491,2.491q0,31.756,0,63.511c0,1.946.549,2.5,2.482,2.5,4.257,0,8.516.017,12.775-.013a3.432,3.432,0,0,1,2.2.626A17.839,17.839,0,0,0,2522.534,1420.126Z" transform="translate(-2498.011 -1344.942)" fill="#743386"/>
        </g>
        <g id="Group_1598" data-name="Group 1598" transform="translate(22.886 39.823)">
          <g id="Group_1597" data-name="Group 1597">
            <path id="Path_1884" data-name="Path 1884" d="M2543.254,1407.857c-1.143-.176-2.532-.344-3.9-.618a2.662,2.662,0,0,0-2.567.792c-.909.9-1.791,1.822-2.7,2.719a2.657,2.657,0,0,1-4.163-.011c-.906-.9-1.792-1.82-2.7-2.719a2.624,2.624,0,0,0-2.572-.775c-1.095.241-2.213.363-3.32.557-2.212.387-3.412-.473-3.75-2.7-.168-1.11-.372-2.216-.51-3.329a2.788,2.788,0,0,0-1.58-2.291c-1.111-.559-2.227-1.108-3.339-1.665a2.707,2.707,0,0,1-1.35-4.009c.516-1.032,1.03-2.067,1.6-3.072a3.027,3.027,0,0,0,.029-3.192c-.577-1.032-1.1-2.094-1.63-3.153a2.644,2.644,0,0,1,1.218-3.9c1.069-.571,2.155-1.119,3.253-1.629a2.917,2.917,0,0,0,1.816-2.517c.129-1.206.346-2.4.535-3.6a2.7,2.7,0,0,1,3.278-2.36c1.2.2,2.394.4,3.591.6a3.007,3.007,0,0,0,2.961-.973c.77-.86,1.6-1.663,2.425-2.476,1.415-1.409,2.854-1.4,4.289.017.818.813,1.651,1.618,2.428,2.475a2.95,2.95,0,0,0,2.876.965c1.2-.2,2.394-.4,3.589-.61a2.713,2.713,0,0,1,3.352,2.369c.192,1.228.394,2.458.55,3.691a2.8,2.8,0,0,0,1.656,2.332c1.144.556,2.293,1.113,3.414,1.714a2.635,2.635,0,0,1,1.237,3.833c-.577,1.171-1.187,2.325-1.79,3.482a2.679,2.679,0,0,0,.006,2.614c.575,1.1,1.15,2.208,1.709,3.319a2.7,2.7,0,0,1-1.333,4.079c-1.084.542-2.169,1.088-3.258,1.624a2.811,2.811,0,0,0-1.645,2.343c-.149,1.235-.353,2.463-.546,3.693A2.747,2.747,0,0,1,2543.254,1407.857Zm-11.272-3.074a16.077,16.077,0,1,0-16.045-16.145A16.07,16.07,0,0,0,2531.982,1404.783Z" transform="translate(-2510.386 -1366.476)" fill="#743386"/>
          </g>
        </g>
        <g id="Group_1599" data-name="Group 1599" transform="translate(11.449 15.668)">
          <path id="Path_1885" data-name="Path 1885" d="M2524.042,1353.419c5.653,0,11.309-.022,16.962.028a3.856,3.856,0,0,1,2.081.645,1.923,1.923,0,0,1,.59,2.382,2.213,2.213,0,0,1-1.976,1.512,3.384,3.384,0,0,1-.366.007q-17.327,0-34.655,0a2.246,2.246,0,0,1-2.463-2.033,2.2,2.2,0,0,1,2.318-2.526c3.131-.026,6.262-.011,9.393-.013Z" transform="translate(-2504.202 -1353.414)" fill="#743386"/>
        </g>
        <g id="Group_1600" data-name="Group 1600" transform="translate(11.443 27.378)">
          <path id="Path_1886" data-name="Path 1886" d="M2523.964,1364.31q-8.613,0-17.229,0a2.244,2.244,0,0,1-2.535-2.24,2.289,2.289,0,0,1,2.566-2.319q17.232-.006,34.461,0a2.375,2.375,0,0,1,2.568,1.851,2.235,2.235,0,0,1-1.277,2.48,3.723,3.723,0,0,1-1.413.22Q2532.534,1364.323,2523.964,1364.31Z" transform="translate(-2504.199 -1359.746)" fill="#743386"/>
        </g>
        <g id="Group_1601" data-name="Group 1601" transform="translate(30.728 48.262)">
          <path id="Path_1887" data-name="Path 1887" d="M2542.194,1384.765a13.783,13.783,0,1,1-13.869-13.726A13.784,13.784,0,0,1,2542.194,1384.765Z" transform="translate(-2514.627 -1371.039)" fill="#743386"/>
        </g>
      </g>
    </g>
  </g>
</svg>
