<svg xmlns="http://www.w3.org/2000/svg" width="145" height="146" viewBox="0 0 145 146">
  <g id="Group_6" data-name="Group 6" transform="translate(-0.493 0.016)">
    <g id="Ellipse_13" data-name="Ellipse 13" transform="translate(0.493 -0.016)" fill="none" stroke="#851753" stroke-width="1">
      <ellipse cx="72.5" cy="73" rx="72.5" ry="73" stroke="none"/>
      <ellipse cx="72.5" cy="73" rx="72" ry="72.5" fill="none"/>
    </g>
    <g id="Group_2443" data-name="Group 2443" transform="translate(16.874 20.851)">
      <g id="Group_2442" data-name="Group 2442" transform="translate(0 0)">
        <g id="Group_2407" data-name="Group 2407" transform="translate(4.861 67.421)">
          <g id="Group_2406" data-name="Group 2406">
            <path id="Path_2375" data-name="Path 2375" d="M270.9,159.891a2.7,2.7,0,0,1-1.743,2.841l2.318,3.274h-2.516l-2.03-2.921h-1.414v2.921H263.47v-9.154h3.47a4.951,4.951,0,0,1,3.046.723A2.774,2.774,0,0,1,270.9,159.891Zm-2.462,1.088a1.4,1.4,0,0,0,.377-1.081,1.165,1.165,0,0,0-.393-1.017,2.524,2.524,0,0,0-1.375-.273h-1.533v2.709h1.493A2.228,2.228,0,0,0,268.436,160.979Z" transform="translate(-263.47 -156.645)" fill="#743386"/>
            <path id="Path_2376" data-name="Path 2376" d="M275.4,156.852v1.819h-4.56v1.887h4.1V162.3h-4.1v1.9h4.7v1.806H268.8v-9.154Z" transform="translate(-259.539 -156.645)" fill="#743386"/>
            <path id="Path_2377" data-name="Path 2377" d="M280.6,166.006l-.85-1.978h-3.842l-.848,1.978h-2.174l3.955-9.154h1.974l3.958,9.154Zm-2.765-6.43-1.149,2.659h2.287Z" transform="translate(-256.52 -156.645)" fill="#743386"/>
            <path id="Path_2378" data-name="Path 2378" d="M286.034,158.049a4.3,4.3,0,0,1,1.31,3.335,4.492,4.492,0,0,1-1.281,3.38,5.384,5.384,0,0,1-3.891,1.242H279.04v-9.154h3.234A5.392,5.392,0,0,1,286.034,158.049Zm-1.5,5.441a2.673,2.673,0,0,0,.749-2.054,2.755,2.755,0,0,0-.749-2.077,3.225,3.225,0,0,0-2.313-.726h-1.142V164.2h1.3A3.035,3.035,0,0,0,284.536,163.49Z" transform="translate(-251.984 -156.645)" fill="#743386"/>
            <path id="Path_2379" data-name="Path 2379" d="M288.988,166.006h-2.047v-3.613l-3.168-5.542h2.214l1.979,3.406,1.976-3.406h2.214l-3.168,5.542Z" transform="translate(-248.492 -156.645)" fill="#743386"/>
            <path id="Path_2380" data-name="Path 2380" d="M288.581,161.1v-1.741h4.662V161.1Z" transform="translate(-244.945 -154.799)" fill="#743386"/>
            <path id="Path_2381" data-name="Path 2381" d="M296.066,158.619v7.387h-2.042v-7.387h-2.593v-1.767h7.225v1.767Z" transform="translate(-242.842 -156.645)" fill="#743386"/>
            <path id="Path_2382" data-name="Path 2382" d="M304.078,164.829a4.986,4.986,0,0,1-6.835,0,4.789,4.789,0,0,1,0-6.744,4.995,4.995,0,0,1,6.835,0,4.793,4.793,0,0,1,0,6.744Zm-.693-3.364a2.992,2.992,0,0,0-.785-2.087,2.587,2.587,0,0,0-3.865,0,3.158,3.158,0,0,0,0,4.169,2.6,2.6,0,0,0,3.865,0A2.973,2.973,0,0,0,303.384,161.465Z" transform="translate(-239.578 -156.733)" fill="#743386"/>
            <path id="Path_2383" data-name="Path 2383" d="M302.087,161.1v-1.741h4.662V161.1Z" transform="translate(-234.981 -154.799)" fill="#743386"/>
            <path id="Path_2384" data-name="Path 2384" d="M308.19,158.766a.8.8,0,0,0-.294.643.727.727,0,0,0,.36.636,6.438,6.438,0,0,0,1.663.556,4.72,4.72,0,0,1,2.026.961,2.388,2.388,0,0,1,.719,1.873,2.475,2.475,0,0,1-.925,2,3.684,3.684,0,0,1-2.431.766,5.624,5.624,0,0,1-3.913-1.611l1.215-1.493a4.354,4.354,0,0,0,2.74,1.3,1.46,1.46,0,0,0,.884-.242.784.784,0,0,0,.318-.657.758.758,0,0,0-.339-.653,4.509,4.509,0,0,0-1.35-.492,5.848,5.848,0,0,1-2.337-.991,2.327,2.327,0,0,1-.74-1.911,2.376,2.376,0,0,1,.937-2.009,3.777,3.777,0,0,1,2.337-.706,5.7,5.7,0,0,1,1.835.311,4.9,4.9,0,0,1,1.6.891l-1.036,1.494a4.018,4.018,0,0,0-2.464-.9A1.239,1.239,0,0,0,308.19,158.766Z" transform="translate(-232.54 -156.733)" fill="#743386"/>
            <path id="Path_2385" data-name="Path 2385" d="M316.116,156.852h2.038v9.154h-2.038v-3.6h-3.642v3.6H310.43v-9.154h2.044v3.825h3.642Z" transform="translate(-228.826 -156.645)" fill="#743386"/>
            <path id="Path_2386" data-name="Path 2386" d="M316.022,156.852h2.04v9.154h-2.04Z" transform="translate(-224.701 -156.645)" fill="#743386"/>
            <path id="Path_2387" data-name="Path 2387" d="M324.646,157.672a3.117,3.117,0,0,1,.966,2.513,2.969,2.969,0,0,1-.99,2.481,4.811,4.811,0,0,1-3.018.785h-1.216v2.554h-2.044v-9.154h3.237A4.68,4.68,0,0,1,324.646,157.672Zm-1.5,3.6a1.75,1.75,0,0,0,.365-1.2,1.277,1.277,0,0,0-.476-1.13,2.659,2.659,0,0,0-1.487-.332h-1.164v3.076h1.373A1.819,1.819,0,0,0,323.15,161.271Z" transform="translate(-222.988 -156.645)" fill="#743386"/>
          </g>
        </g>
        <g id="Group_2409" data-name="Group 2409" transform="translate(31.605 84.88)">
          <g id="Group_2408" data-name="Group 2408">
            <path id="Path_2388" data-name="Path 2388" d="M279.4,167.419v-.639h2.047v2.775a1.481,1.481,0,0,1-.372,1.1,1.312,1.312,0,0,1-.959.368,1.722,1.722,0,0,1-1.253-.518l.4-.563a1.177,1.177,0,0,0,.8.391.65.65,0,0,0,.473-.184.732.732,0,0,0,.2-.561v-2.172Z" transform="translate(-278.86 -166.78)" fill="#743386"/>
            <path id="Path_2389" data-name="Path 2389" d="M284.857,166.78v.667H282.61v1.116h2.016v.633H282.61v1.124h2.32v.669H281.9V166.78Z" transform="translate(-276.617 -166.78)" fill="#743386"/>
            <path id="Path_2390" data-name="Path 2390" d="M286.6,169.811l.935-3.031h.639l.94,3.031,1.058-3.031h.766l-1.472,4.209h-.7l-.884-2.885h-.049l-.888,2.885h-.7l-1.472-4.209h.766Z" transform="translate(-274.498 -166.78)" fill="#743386"/>
            <path id="Path_2391" data-name="Path 2391" d="M292.555,166.78v.667H290.31v1.116h2.016v.633H290.31v1.124h2.32v.669H289.6V166.78Z" transform="translate(-270.936 -166.78)" fill="#743386"/>
            <path id="Path_2392" data-name="Path 2392" d="M292.768,170.989V166.78h.709v3.533H295.4v.676Z" transform="translate(-268.6 -166.78)" fill="#743386"/>
            <path id="Path_2393" data-name="Path 2393" d="M295.63,170.989V166.78h.713v3.533h1.918v.676Z" transform="translate(-266.488 -166.78)" fill="#743386"/>
            <path id="Path_2394" data-name="Path 2394" d="M301.45,166.78v.667H299.2v1.116h2.016v.633H299.2v1.124h2.316v.669h-3.025V166.78Z" transform="translate(-264.375 -166.78)" fill="#743386"/>
            <path id="Path_2395" data-name="Path 2395" d="M305.02,168.146a1.226,1.226,0,0,1-.907,1.314l1.1,1.529h-.9l-1.006-1.416h-.933v1.416h-.709V166.78h1.566a2.257,2.257,0,0,1,1.376.325A1.233,1.233,0,0,1,305.02,168.146Zm-.944.6a.76.76,0,0,0,.215-.6.641.641,0,0,0-.224-.566,1.479,1.479,0,0,0-.8-.155h-.9v1.5h.884A1.341,1.341,0,0,0,304.076,168.744Z" transform="translate(-262.039 -166.78)" fill="#743386"/>
            <path id="Path_2396" data-name="Path 2396" d="M306.965,170.989h-.723v-1.661l-1.566-2.548h.775l1.15,1.915,1.149-1.915h.78l-1.566,2.548Z" transform="translate(-259.815 -166.78)" fill="#743386"/>
          </g>
        </g>
        <g id="Group_2410" data-name="Group 2410" transform="translate(3.871)">
          <path id="Path_2397" data-name="Path 2397" d="M365.828,178.5A51.834,51.834,0,1,0,262.9,169.777a51.947,51.947,0,0,0,.758,8.722h.98a50.878,50.878,0,1,1,100.213,0Z" transform="translate(-262.9 -117.935)" fill="#743386"/>
        </g>
        <g id="Group_2411" data-name="Group 2411" transform="translate(14.796 83.597)">
          <path id="Path_2398" data-name="Path 2398" d="M269.187,166.042a51.721,51.721,0,0,0,81.837,0h-1.239a50.73,50.73,0,0,1-79.359,0Z" transform="translate(-269.187 -166.042)" fill="#743386"/>
        </g>
        <g id="Group_2412" data-name="Group 2412" transform="translate(6.865 2.994)">
          <path id="Path_2399" data-name="Path 2399" d="M361.516,177.227a48.848,48.848,0,1,0-96.09,0h2.445c-.209-1.1-1.225-8.722-.8-10.2a46.334,46.334,0,0,1,51.922-44.613,12.52,12.52,0,0,1,.156,5c-.431,2.183-2.365,3.573-4.419,5.045a17.849,17.849,0,0,0-4.174,3.726c-.587.8.167,1.868,1,.732a16.891,16.891,0,0,1,3.9-3.451c2.155-1.547,4.384-3.149,4.909-5.813a13.333,13.333,0,0,0-.083-5.076,46.494,46.494,0,0,1,39.586,44.449c.679,2.516-.582,9.1-.8,10.2Z" transform="translate(-264.623 -119.658)" fill="#743386"/>
        </g>
        <g id="Group_2413" data-name="Group 2413" transform="translate(18.661 83.597)">
          <path id="Path_2400" data-name="Path 2400" d="M274.654,166.042h-3.243a48.706,48.706,0,0,0,74.1,0h-3.243a46.28,46.28,0,0,1-67.619,0Z" transform="translate(-271.411 -166.042)" fill="#743386"/>
        </g>
        <g id="Group_2414" data-name="Group 2414" transform="translate(0 61.724)">
          <path id="Path_2401" data-name="Path 2401" d="M260.672,154.223v.885H372.1v-1.654H260.672Z" transform="translate(-260.672 -153.455)" fill="#743386"/>
        </g>
        <g id="Group_2415" data-name="Group 2415" transform="translate(0 80.828)">
          <path id="Path_2402" data-name="Path 2402" d="M260.672,165.277v.826H372.1v-1.655H260.672Z" transform="translate(-260.672 -164.449)" fill="#743386"/>
        </g>
        <g id="Group_2427" data-name="Group 2427" transform="translate(18.339 38.038)">
          <g id="Group_2416" data-name="Group 2416" transform="translate(0 6.269)">
            <path id="Path_2403" data-name="Path 2403" d="M271.754,144.487a.527.527,0,0,0,0-1.055.527.527,0,1,0,0,1.055Z" transform="translate(-271.226 -143.432)" fill="#743386"/>
          </g>
          <g id="Group_2417" data-name="Group 2417" transform="translate(4.012 5.8)">
            <path id="Path_2404" data-name="Path 2404" d="M273.917,143.932a.385.385,0,1,0-.382-.384A.385.385,0,0,0,273.917,143.932Z" transform="translate(-273.535 -143.162)" fill="#743386"/>
          </g>
          <g id="Group_2418" data-name="Group 2418" transform="translate(1.029 9.964)">
            <path id="Path_2405" data-name="Path 2405" d="M272.3,146.522a.482.482,0,1,0-.48-.483A.485.485,0,0,0,272.3,146.522Z" transform="translate(-271.818 -145.558)" fill="#743386"/>
          </g>
          <g id="Group_2419" data-name="Group 2419" transform="translate(2.264 7.737)">
            <circle id="Ellipse_5" data-name="Ellipse 5" cx="0.339" cy="0.339" r="0.339" fill="#743386"/>
          </g>
          <g id="Group_2420" data-name="Group 2420" transform="translate(6.472)">
            <circle id="Ellipse_6" data-name="Ellipse 6" cx="0.709" cy="0.709" r="0.709" fill="#743386"/>
          </g>
          <g id="Group_2421" data-name="Group 2421" transform="translate(4.982 3.173)">
            <path id="Path_2406" data-name="Path 2406" d="M274.479,142.423a.387.387,0,1,0-.386-.386A.388.388,0,0,0,274.479,142.423Z" transform="translate(-274.093 -141.65)" fill="#743386"/>
          </g>
          <g id="Group_2422" data-name="Group 2422" transform="translate(12.633 10.386)">
            <path id="Path_2407" data-name="Path 2407" d="M279.584,146.343a.544.544,0,1,0-.542.54A.543.543,0,0,0,279.584,146.343Z" transform="translate(-278.496 -145.801)" fill="#743386"/>
          </g>
          <g id="Group_2423" data-name="Group 2423" transform="translate(15.527 7.985)">
            <path id="Path_2408" data-name="Path 2408" d="M281.513,145.093a.676.676,0,1,0-.674.679A.673.673,0,0,0,281.513,145.093Z" transform="translate(-280.161 -144.419)" fill="#743386"/>
          </g>
          <g id="Group_2424" data-name="Group 2424" transform="translate(15.965 11.012)">
            <path id="Path_2409" data-name="Path 2409" d="M281.327,146.618a.457.457,0,1,0-.457.459A.458.458,0,0,0,281.327,146.618Z" transform="translate(-280.413 -146.161)" fill="#743386"/>
          </g>
          <g id="Group_2425" data-name="Group 2425" transform="translate(8.862 2.893)">
            <path id="Path_2410" data-name="Path 2410" d="M276.661,142.156a.33.33,0,0,0,.332-.332.334.334,0,1,0-.332.332Z" transform="translate(-276.326 -141.489)" fill="#743386"/>
          </g>
          <g id="Group_2426" data-name="Group 2426" transform="translate(1.806 2.606)">
            <path id="Path_2411" data-name="Path 2411" d="M272.828,142.457a.567.567,0,1,0-.563-.566A.567.567,0,0,0,272.828,142.457Z" transform="translate(-272.265 -141.324)" fill="#743386"/>
          </g>
        </g>
        <g id="Group_2441" data-name="Group 2441" transform="translate(27.431 21.143)">
          <g id="Group_2440" data-name="Group 2440">
            <g id="Group_2429" data-name="Group 2429" transform="translate(46.948 7.597)">
              <g id="Group_2428" data-name="Group 2428">
                <path id="Path_2412" data-name="Path 2412" d="M316.984,146.077c0,2.657.023,5.312-.005,7.964-.017,1.561-.575,2.859-2.2,3.33a2.177,2.177,0,0,1-2.82-.945,8.545,8.545,0,0,0-7.088-4.256c-1.03-.049-1.408-.473-1.4-1.541.052-4.866.045-9.735.01-14.6-.007-1.126.367-1.581,1.541-1.557,2.82.064,5.641.01,8.461.026,2.3.01,3.448,1.114,3.488,3.449C317.021,140.657,316.984,143.37,316.984,146.077Zm-11.269-4.833c0,1.157.033,2.316-.012,3.47-.029.9.33,1.342,1.242,1.335,1.816-.007,3.637.05,5.451-.016a2.038,2.038,0,0,0,2.2-2.318c-.024-.937,0-1.873,0-2.81,0-4.334,0-4.334-4.261-4.334C305.712,136.572,305.712,136.572,305.715,141.245Z" transform="translate(-303.475 -134.473)" fill="#743386" fill-rule="evenodd"/>
              </g>
            </g>
            <g id="Group_2430" data-name="Group 2430" transform="translate(9.904)">
              <path id="Path_2413" data-name="Path 2413" d="M314.058,156.844V135.155c0-2.266,0-2.275-2.278-2.275-8.185,0-16.373.033-24.558-.028-1.611-.01-2.6.273-2.309,2.163.16,1.055-.494,1.3-1.413,1.31-1.01.01-1.307-.422-1.335-1.4-.108-3.8.85-4.82,4.7-4.82q13.023,0,26.05.005c2.906,0,3.884.975,3.887,3.849,0,6.473-.1,12.946.061,19.414C316.913,155.457,316.124,156.4,314.058,156.844Z" transform="translate(-282.157 -130.102)" fill="#743386" fill-rule="evenodd"/>
            </g>
            <g id="Group_2432" data-name="Group 2432" transform="translate(16.505 28.134)">
              <g id="Group_2431" data-name="Group 2431">
                <path id="Path_2414" data-name="Path 2414" d="M299.142,152.968a6.594,6.594,0,1,1-6.485-6.676A6.475,6.475,0,0,1,299.142,152.968Zm-6.558-2.441a2.425,2.425,0,0,0-2.377,2.275,2.488,2.488,0,0,0,2.408,2.433,2.461,2.461,0,0,0,2.285-2.377A2.431,2.431,0,0,0,292.584,150.527Z" transform="translate(-285.956 -146.292)" fill="#743386" fill-rule="evenodd"/>
              </g>
            </g>
            <g id="Group_2434" data-name="Group 2434" transform="translate(40.833 28.134)">
              <g id="Group_2433" data-name="Group 2433">
                <path id="Path_2415" data-name="Path 2415" d="M306.618,146.292a6.6,6.6,0,1,1,.026,13.195,6.667,6.667,0,0,1-6.688-6.6A6.59,6.59,0,0,1,306.618,146.292Zm-.012,4.231a2.329,2.329,0,0,0-2.266,2.365,2.38,2.38,0,0,0,2.315,2.341,2.354,2.354,0,0,0-.049-4.706Z" transform="translate(-299.956 -146.292)" fill="#743386" fill-rule="evenodd"/>
              </g>
            </g>
            <g id="Group_2435" data-name="Group 2435" transform="translate(9.931 24.721)">
              <path id="Path_2416" data-name="Path 2416" d="M284.752,144.424c.5,3.31.5,3.31,2.973,3.936-.6,1.421-1.171,2.735-3.161,2.275-1.515-.353-2.365-1.493-2.389-3.46,0-.221,0-.441,0-.662C282.175,144.2,282.189,144.193,284.752,144.424Z" transform="translate(-282.173 -144.328)" fill="#743386" fill-rule="evenodd"/>
            </g>
            <g id="Group_2436" data-name="Group 2436" transform="translate(30.701 28.542)">
              <path id="Path_2417" data-name="Path 2417" d="M294.125,146.527h9.255c-.612,1.743-1.416,2.918-3.442,2.572a7.864,7.864,0,0,0-2.464,0C295.56,149.375,294.676,148.362,294.125,146.527Z" transform="translate(-294.125 -146.527)" fill="#743386" fill-rule="evenodd"/>
            </g>
            <g id="Group_2437" data-name="Group 2437" transform="translate(11.214 13.979)">
              <path id="Path_2418" data-name="Path 2418" d="M307.027,141.137H284.405a1.5,1.5,0,0,1,0-2.991h22.622a1.5,1.5,0,0,1,0,2.991Z" transform="translate(-282.911 -138.146)" fill="#743386"/>
            </g>
            <g id="Group_2438" data-name="Group 2438" transform="translate(0 8.105)">
              <path id="Path_2419" data-name="Path 2419" d="M303.714,137.755H277.956a1.494,1.494,0,1,1,0-2.989h25.758a1.494,1.494,0,1,1,0,2.989Z" transform="translate(-276.458 -134.766)" fill="#743386"/>
            </g>
            <g id="Group_2439" data-name="Group 2439" transform="translate(4.982 19.871)">
              <path id="Path_2420" data-name="Path 2420" d="M293.435,144.526H280.819a1.494,1.494,0,0,1,0-2.989h12.616a1.494,1.494,0,1,1,0,2.989Z" transform="translate(-279.325 -141.537)" fill="#743386"/>
            </g>
          </g>
        </g>
      </g>
    </g>
  </g>
</svg>
