<svg xmlns="http://www.w3.org/2000/svg" width="146" height="146" viewBox="0 0 146 146">
  <g id="Group_4" data-name="Group 4" transform="translate(-0.099 0.016)">
    <g id="Group_3736" data-name="Group 3736">
      <g id="Ellipse_9" data-name="Ellipse 9" transform="translate(0.099 -0.016)" fill="none" stroke="#851753" stroke-width="1">
        <circle cx="73" cy="73" r="73" stroke="none"/>
        <circle cx="73" cy="73" r="72.5" fill="none"/>
      </g>
      <g id="Group_2163" data-name="Group 2163" transform="translate(8.083 8.254)">
        <path id="Path_1901" data-name="Path 1901" d="M3230.225,1411.095a64.085,64.085,0,1,1,64.1,64.069A64.213,64.213,0,0,1,3230.225,1411.095Zm43.527,54.225a7.505,7.505,0,0,0,.745.366,58.1,58.1,0,0,0,77.092-64.285c-5.83-34.872-41.521-56.484-75.232-45.556a58.108,58.108,0,0,0-40.062,57.868,47.828,47.828,0,0,0,1.859,11.89c.071.354.118.711.217,1.057a57.575,57.575,0,0,0,23.206,32.38A49.108,49.108,0,0,0,3273.752,1465.319Z" transform="translate(-3230.225 -1346.992)" fill="#743386"/>
        <path id="Path_1902" data-name="Path 1902" d="M3282.367,1408.081c-3.605.371-7.02-.656-10.445-1.5a85.91,85.91,0,0,1-13.219-4.028,13.162,13.162,0,0,1-6.954-6.839,23.209,23.209,0,0,1-1.378-3.465,24.638,24.638,0,0,0-6.65-10.462,43.779,43.779,0,0,0-4.334-4,15.564,15.564,0,0,1,2.341-2.7c1.1-1.223,2.3-2.366,3.357-3.626.585-.7.89-.574,1.447.015a26.252,26.252,0,0,0,9.208,6.379,1.888,1.888,0,0,0,.935.487l.482.287.575.365a3.868,3.868,0,0,0,1.146.831l.239.217a1.256,1.256,0,0,0,.691.585.381.381,0,0,0,.285.365l.692.736,1.255,1.91a88.066,88.066,0,0,1,4.437,11.71,8.314,8.314,0,0,1,.323,2.017c.029,1.7-1.047,2.415-2.628,1.793a6.371,6.371,0,0,1-2.456-1.905,44.069,44.069,0,0,1-4.536-7.249c-.194-.344-.389-.687-.657-1.157a3.122,3.122,0,0,0,.429,1.835,22.4,22.4,0,0,0,4.8,8.017,5.85,5.85,0,0,0,2.849,1.734,2.445,2.445,0,0,0,3.077-1.437c.285-.677.514-.6,1.028-.331,3.6,1.891,7.556,2.939,11.258,4.6.126.059.309-.01.465-.017l.673.5c.528.355,1.079.685,1.581,1.072,1.591,1.231,1.472,2.347-.327,3.258Z" transform="translate(-3217.064 -1312.527)" fill="#743386"/>
        <path id="Path_1903" data-name="Path 1903" d="M3289.08,1394.075a.267.267,0,0,0-.08-.19c-.04-.227-.222-.263-.4-.307a2.087,2.087,0,0,0-.991-.675l-.454-.3a30.989,30.989,0,0,0-4.015-2.171,12.678,12.678,0,0,1-6.2-6.169c-1.72-3.974-3.561-7.911-4.417-12.2-.195-.974-.3-2,.648-2.624.987-.646,1.952-.156,2.794.438a13.007,13.007,0,0,1,3.546,4.216c1.074,1.82,2.1,3.667,3.25,5.443-1.357-4.094-2.939-8.075-6.591-10.739-1.965-1.432-3.53-1.018-4.755,1.058-.164.28-.263.346-.527.2-4.181-2.249-8.876-3.283-13.06-5.524a9.134,9.134,0,0,1-1.586-1.087,1.7,1.7,0,0,1-.581-2.239,3.767,3.767,0,0,1,3.166-.834,90.066,90.066,0,0,1,22,5.753,12.634,12.634,0,0,1,6.708,6.786,18.734,18.734,0,0,1,1.215,3.021c1.268,4.688,4.164,8.3,7.542,11.6.95.931,1.9,1.864,2.926,2.707.614.5.641.792.073,1.372-1.635,1.669-3.195,3.408-4.783,5.121-.57.212-.7,1.148-1.533.93-.327-1.152-1.482-1.544-2.171-2.368l-.524-.473a1.265,1.265,0,0,0-.713-.524C3289.49,1394.038,3289.254,1394.123,3289.08,1394.075Z" transform="translate(-3193.995 -1327.842)" fill="#743386"/>
        <path id="Path_1904" data-name="Path 1904" d="M3263.579,1387.733c-.3-.619-.96-.672-1.486-.9-2.986-1.265-6.105-2.2-9.04-3.6a8.013,8.013,0,0,1-.97-.478c-.373-.241-1.143-.311-.916-.9.217-.561.85-.107,1.26-.029a65.511,65.511,0,0,1,8.693,2.336l-.009-.009.51.251-.022-.014.256.158a5.178,5.178,0,0,1,1.929,1.7C3264.074,1386.769,3264.411,1387.348,3263.579,1387.733Z" transform="translate(-3200.198 -1297.301)" fill="#743386"/>
        <path id="Path_1905" data-name="Path 1905" d="M3261.292,1384.331a68.77,68.77,0,0,0-9.6-2.493.7.7,0,0,1-.653-.889,39.659,39.659,0,0,1,8.533,1.781C3260.2,1383.2,3261,1383.5,3261.292,1384.331Z" transform="translate(-3200.344 -1298.212)" fill="#743386"/>
        <path id="Path_1906" data-name="Path 1906" d="M3253.042,1373.9c-.088-.351-.38-.717.385-.711,4.67.034,9.341.022,14.012.017.438,0,.755.049.484.587-2.46,4.861-4.926,9.72-7.456,14.707l-6.271-12.368Z" transform="translate(-3197.632 -1309.363)" fill="#743386"/>
        <path id="Path_1907" data-name="Path 1907" d="M3250.981,1370.489c.539-.534,1.3-.571,1.94-.89,2.928-1.464,6.076-1.238,9.2-1.206a33.934,33.934,0,0,0,3.984-.02c3.339-.358,6.333.667,9.4,2.152-2.43.762-4.528,2.156-7.167,2.02a59.6,59.6,0,0,0-7.968.015A18.573,18.573,0,0,1,3250.981,1370.489Z" transform="translate(-3200.406 -1316.378)" fill="#743386"/>
        <path id="Path_1908" data-name="Path 1908" d="M3260.534,1375.73c-2.337,0-4.673-.017-7.012.008-.634.007-.865-.093-.641-.8.388-1.225.695-2.478.973-3.732a.694.694,0,0,1,.813-.648c3.988.012,7.977.022,11.968,0,.616,0,.714.348.826.8.291,1.169.582,2.339.918,3.5.2.694.037.911-.711.9C3265.29,1375.7,3262.912,1375.73,3260.534,1375.73Z" transform="translate(-3197.799 -1313.149)" fill="#743386"/>
        <path id="Path_1909" data-name="Path 1909" d="M3263.005,1381.554q-2.42,2.88-4.839,5.76c-.278.329-.484.743-.945.879-.331-.151-.065-.3,0-.443,1.991-4.066,4.208-8.019,6.063-12.151a2.905,2.905,0,0,1,1.55-1.211c1.182-.551,2.367-1.094,3.552-1.642l.689-.336c.418.154.437-.373.734-.426.2.142.329-.034.485-.1.677.8-.607.9-.534,1.491l-.675.743-5.124,6.232-.253.4A1.592,1.592,0,0,0,3263.005,1381.554Z" transform="translate(-3191.679 -1311.231)" fill="#743386"/>
        <path id="Path_1910" data-name="Path 1910" d="M3258.99,1380.149c1.115,2.668,2.759,5.1,3.537,7.93l-6.7-8.169-.678-.782-.523-.673c-.251-.392-.46-.821-.95-.982l-.447-.492c-.036-.543-.444-.843-.776-1.192l-.431-.5-2.592-3.3a.842.842,0,0,1,.836.068c1.844.872,3.7,1.733,5.543,2.6.9.421.886,1.471,1.461,2.117A20.613,20.613,0,0,0,3258.99,1380.149Z" transform="translate(-3202.645 -1311.207)" fill="#743386"/>
        <path id="Path_1911" data-name="Path 1911" d="M3249.975,1372.175c.583-.692,1.158-1.394,1.75-2.078.239-.275.4-.738.927-.5,1.552.626,3.1,1.262,4.656,1.871.556.217.812.431.575,1.128-.395,1.172-.615,2.4-.931,3.6-.08.312-.1.777-.669.507-2.349-1.106-4.7-2.2-7.052-3.309-.059-.029-.085-.132-.127-.2l0,0Z" transform="translate(-3203.109 -1314.614)" fill="#743386"/>
        <path id="Path_1912" data-name="Path 1912" d="M3260.3,1376.449c-.287-1.2-.516-2.426-.884-3.6-.273-.877-.035-1.27.813-1.557,1.362-.46,2.7-1,4.014-1.589a.9.9,0,0,1,1.279.355c.613.787,1.3,1.518,1.954,2.273l.061.3c-.587.185-.619.76-.846,1.2.005.258-.182.234-.351.239a.428.428,0,0,0-.49.446l-.445-.195c-.229.192-.741-.1-.763.451a22,22,0,0,1-3.845,1.922C3260.58,1376.793,3260.426,1376.61,3260.3,1376.449Zm5.176-3.228-.105-.285a1.08,1.08,0,0,0-.211.239c-.022.049.042.139.065.21Z" transform="translate(-3188.449 -1314.563)" fill="#743386"/>
        <path id="Path_1913" data-name="Path 1913" d="M3268.881,1368.417c-3.425-.784-6.914-1.42-10.13-2.98a3.6,3.6,0,0,1-2.057-2.1c-.117-.382-.227-1.038.59-.66,3.574,1.652,7.4,2.685,10.933,4.444.324.161.633.353.962.507.287.134.487.326.363.648S3269.122,1368.366,3268.881,1368.417Z" transform="translate(-3192.318 -1324.616)" fill="#743386"/>
        <path id="Path_1914" data-name="Path 1914" d="M3267.979,1367.667c-3.5-.784-7.276-.58-10.119-3.4,1.337.4,2.663.845,4.016,1.192,1.746.445,3.51.825,5.272,1.206C3267.651,1366.778,3268.1,1366.875,3267.979,1367.667Z" transform="translate(-3190.526 -1322.17)" fill="#743386"/>
        <path id="Path_1915" data-name="Path 1915" d="M3258.455,1382.575a44.041,44.041,0,0,0-6.873-1.238.727.727,0,0,1-.744-.87c.057-.485.526-.19.79-.176a20.172,20.172,0,0,1,4.875.768A3.039,3.039,0,0,1,3258.455,1382.575Z" transform="translate(-3200.622 -1299.302)" fill="#743386"/>
        <path id="Path_1916" data-name="Path 1916" d="M3259.1,1365.42a45.188,45.188,0,0,0,6.848,1.243c.521.066.755.319.742.745-.022.648-.561.28-.822.273a18.582,18.582,0,0,1-4.853-.753A2.86,2.86,0,0,1,3259.1,1365.42Z" transform="translate(-3188.743 -1320.519)" fill="#743386"/>
      </g>
    </g>
  </g>
</svg>
